<svg width="50" height="50" viewBox="0 0 50 50" fill="none" xmlns="http://www.w3.org/2000/svg">
<path d="M29.6721 24.6396L48.132 6.17977C49.5252 4.78655 49.5252 2.69675 48.132 1.30361C46.7387 -0.0895355 44.6489 -0.0896171 43.2558 1.30361L24.796 19.7634L6.33612 1.30361C4.9429 -0.0896171 2.8531 -0.0896171 1.45996 1.30361C0.0668145 2.69683 0.0667329 4.78663 1.45996 6.17977L19.9198 24.6396L1.45996 43.0994C0.0667329 44.4927 0.0667329 46.5825 1.45996 47.9756C2.15653 48.6722 2.85318 49.0205 3.89808 49.0205C4.94298 49.0205 5.63955 48.6722 6.3362 47.9756L24.796 29.5158L43.2559 47.9756C43.9524 48.6722 44.9973 49.0205 45.694 49.0205C46.3906 49.0205 47.4355 48.6722 48.1321 47.9756C49.5253 46.5824 49.5253 44.4926 48.1321 43.0994L29.6723 24.6396H29.6721Z" fill="#ED6436"/>
</svg>
