<svg width="434" height="480" viewBox="0 0 434 480" fill="none" xmlns="http://www.w3.org/2000/svg">
<path d="M317.77 479.519H310.593L238.563 297.521H252.917L317.77 479.519Z" fill="#0B2F2F"/>
<path d="M116.23 479.519H123.407L195.435 297.521H181.083L116.23 479.519Z" fill="#0B2F2F"/>
<path d="M303.382 281.391C303.382 281.391 275.467 162.752 217.15 162.197C217.15 162.197 217.049 162.193 216.999 162.193C216.946 162.193 216.898 162.19 216.845 162.19V162.197C158.53 162.752 130.615 281.391 130.615 281.391C130.615 281.391 130.617 309.343 216.845 309.408V309.41C216.898 309.41 216.946 309.41 216.999 309.41C217.049 309.41 217.099 309.41 217.15 309.41V309.408C303.38 309.343 303.382 281.391 303.382 281.391Z" fill="white"/>
<path d="M303.384 281.391C303.384 281.391 303.382 309.343 217.15 309.408V309.41C217.099 309.41 217.049 309.408 216.999 309.408C216.948 309.408 216.898 309.41 216.845 309.41V309.408C130.617 309.343 130.615 281.391 130.615 281.391C130.615 281.391 131.331 278.353 132.772 273.246C144.517 280.889 168.376 288.655 216.833 288.693H217.167C241.03 288.674 258.929 286.781 272.351 283.95C286.184 281.036 295.263 277.123 301.225 273.244C302.669 278.351 303.384 281.391 303.384 281.391Z" fill="#496C6C"/>
<path d="M250.398 29.7666C249.475 13.1716 235.731 -0.000656128 218.906 -0.000656128C202.08 -0.000656128 188.334 13.1716 187.414 29.7666C182.427 41.0534 179.471 55.0975 179.471 70.3259C179.471 107.542 197.125 137.712 218.906 137.712C240.684 137.712 258.341 107.542 258.341 70.3259C258.341 55.0975 255.382 41.0534 250.398 29.7666Z" fill="#101010"/>
<path d="M218.906 82.1169C186.071 82.1169 168.664 97.7559 168.664 97.7559C168.664 97.7559 176.886 148.026 176.886 210.575L184.502 219.534L248.846 218.727L260.925 210.575C260.925 148.026 269.147 97.7559 269.147 97.7559C269.147 97.7559 251.738 82.1169 218.906 82.1169Z" fill="#16A571"/>
<path d="M148.916 189.501L142.875 186.201L140.279 172.971L146.005 167.348L154.224 166.776C158.677 168.847 163.217 189.143 148.916 189.501Z" fill="#16A571"/>
<path d="M139.959 186.522C139.959 186.522 150.318 184.524 152.18 185.98C152.18 185.98 156.141 189.145 164.377 185.96C172.613 182.771 178.933 182.245 188.966 184.176C198.999 186.107 187.938 168.484 170.78 170.758C147.662 173.818 140.864 172.437 140.864 172.437C140.864 172.437 131.353 175.795 139.959 186.522Z" fill="#FFD4CA"/>
<path d="M139.959 186.522C139.959 186.522 150.319 184.524 152.18 185.98C152.18 185.98 156.141 189.145 164.377 185.96C172.613 182.771 178.933 182.245 188.966 184.176C185.317 172 164.565 184.558 136.469 179.795C136.786 181.618 137.804 183.839 139.959 186.522Z" fill="#FDB1A1"/>
<path d="M141.203 169.541L174.559 137.292C174.559 137.292 190.025 122.775 168.664 97.7563C168.664 97.7563 97.6821 155.509 105.186 189.501L141.203 169.541Z" fill="#16A571"/>
<path d="M141.203 169.54L174.559 137.292C174.559 137.292 183.53 128.868 178.368 113.801C178.368 113.801 151.26 128.308 130.327 164.633L141.203 169.54Z" fill="#16A571"/>
<path d="M148.916 189.501H105.186L106.209 179.663L116.859 165.948L120.866 163.786L154.224 166.776C145.113 170.134 142.976 182.497 148.916 189.501Z" fill="#16A571"/>
<path d="M105.183 178.423C104.47 182.307 104.42 186.03 105.186 189.501H148.916C146.838 187.053 145.75 183.948 145.599 180.801C132.532 180.801 105.183 178.423 105.183 178.423Z" fill="#16A571"/>
<path d="M288.894 189.501L294.937 186.201L297.534 172.971L291.805 167.348L283.588 166.776C279.132 168.847 274.593 189.143 288.894 189.501Z" fill="#16A571"/>
<path d="M297.853 186.522C297.853 186.522 287.493 184.524 285.632 185.98C285.632 185.98 281.671 189.145 273.435 185.96C265.196 182.771 258.876 182.245 248.846 184.176C238.813 186.107 249.872 168.484 267.031 170.758C290.15 173.818 296.947 172.437 296.947 172.437C296.947 172.437 306.459 175.795 297.853 186.522Z" fill="#FFD4CA"/>
<path d="M297.853 186.522C297.853 186.522 287.493 184.524 285.632 185.98C285.632 185.98 281.671 189.145 273.435 185.96C265.196 182.771 258.876 182.245 248.846 184.176C252.49 172 273.245 184.558 301.343 179.795C301.023 181.618 300.007 183.839 297.853 186.522Z" fill="#FDB1A1"/>
<path d="M296.606 169.541L263.253 137.292C263.253 137.292 247.784 122.775 269.147 97.7563C269.147 97.7563 340.13 155.509 332.626 189.501L296.606 169.541Z" fill="#16A571"/>
<path d="M296.607 169.54L263.253 137.292C263.253 137.292 254.28 128.868 259.444 113.801C259.444 113.801 286.552 128.308 307.485 164.633L296.607 169.54Z" fill="#16A571"/>
<path d="M288.894 189.501H332.626L331.603 179.663L320.953 165.948L316.944 163.786L283.588 166.776C292.698 170.134 294.836 182.497 288.894 189.501Z" fill="#16A571"/>
<path d="M332.628 178.423C333.337 182.307 333.392 186.03 332.626 189.501H288.894C290.974 187.053 292.062 183.948 292.211 180.801C305.28 180.801 332.628 178.423 332.628 178.423Z" fill="#16A571"/>
<path d="M231.759 73.7077L231.028 64.5731H206.07L205.265 74.6204C204.876 79.4963 201.381 83.5485 196.623 84.6966C196.601 84.7038 196.575 84.7086 196.549 84.7158C196.549 84.7158 199.344 100.806 218.762 100.806C238.179 100.806 241.261 84.7158 241.261 84.7158C241.234 84.7086 241.206 84.7014 241.179 84.6942C235.993 83.4428 232.184 79.0256 231.759 73.7077Z" fill="#FFD4CA"/>
<path d="M231.029 73.2464C231.029 73.2464 227.779 84.4443 218.906 84.4443C210.031 84.4443 206.07 72.3433 206.07 72.3433V63.5762H231.029V73.2464Z" fill="#FDB1A1"/>
<path d="M242.27 21.2681C242.27 64.2389 231.81 80.4136 218.906 80.4136C206.003 80.4136 195.54 64.2389 195.54 21.2681H242.27Z" fill="#FFD4CA"/>
<path d="M200.555 36.4032C209.853 45.3577 232.27 35.1614 239.853 47.5986L238.328 39.3095L200.555 29.2454V36.4032Z" fill="#FDB1A1"/>
<path d="M243.473 20.0432L194.783 19.9471L193.786 31.635L196.121 47.5599L197.865 48.2925C198.124 47.8121 201.585 39.4581 201.924 33.4629C213.191 40.9041 235.842 38.053 240.187 48.2925L246.92 37.0273L243.473 20.0432Z" fill="#101010"/>
<path d="M240.235 37.6861C240.235 37.6861 242.889 33.3722 246.209 36.0263C249.528 38.6805 244.779 53.1162 239.637 53.1162L240.235 37.6861Z" fill="#FFD4CA"/>
<path d="M197.183 37.6861C197.183 37.6861 194.528 33.3722 191.211 36.0263C187.892 38.6805 193.03 53.1162 198.172 53.1162L197.183 37.6861Z" fill="#FFD4CA"/>
<path d="M165.7 479.519C175.121 480.182 183.297 473.081 183.957 463.661L186.215 431.497C186.422 428.561 184.21 426.011 181.27 425.804L161.622 424.425L156.875 447.789L155.473 467.744C155.045 473.821 159.626 479.093 165.7 479.519Z" fill="#0B2F2F"/>
<path d="M167.502 459.496C173.795 459.938 179.255 455.194 179.697 448.903L184.448 381.264L161.66 379.662L156.907 447.301C156.467 453.594 161.209 459.056 167.502 459.496Z" fill="#FDC0B1"/>
<path d="M181.8 417.79L184.447 381.264L161.66 379.662L158.898 418.953C171.674 420.942 181.8 417.79 181.8 417.79Z" fill="#FDB1A1"/>
<path d="M144.222 403.907C144.222 403.907 168.679 413.097 199.767 405.3C199.767 405.3 207.485 240.546 177.686 242.516C146.295 244.586 166.433 288.119 144.222 403.907Z" fill="#2E5E5E"/>
<path d="M260.925 210.575C260.925 210.575 241.222 215.451 216.999 215.451C192.778 215.451 176.889 210.575 176.889 210.575L215.18 277.227L227.757 285.6C291.644 285.6 260.925 210.575 260.925 210.575Z" fill="#2E5E5E"/>
<path d="M196.707 291.626C194.123 263.656 188.62 241.793 177.686 242.516C160.539 243.645 158.768 257.149 157.07 288.047L196.707 291.626Z" fill="#2E5E5E"/>
<path d="M260.925 210.575C273.245 287.212 213.287 272.956 213.287 272.956L227.757 285.6C291.644 285.6 260.925 210.575 260.925 210.575Z" fill="#164343"/>
<path d="M234.122 340.97L238.494 346.761C238.494 346.761 224.524 358.473 171.638 350.371L176.341 343.98L234.122 340.97Z" fill="#0B2F2F"/>
<path d="M216.346 422.758C206.954 423.733 198.55 416.907 197.577 407.513L194.25 375.442C193.947 372.514 196.076 369.891 199.006 369.589L218.596 367.557L224.118 390.752L226.182 410.65C226.811 416.708 222.408 422.131 216.346 422.758Z" fill="#0B2F2F"/>
<path d="M213.883 402.805C207.61 403.456 201.996 398.897 201.345 392.623L194.353 325.179L217.076 322.823L224.068 390.267C224.719 396.543 220.16 402.154 213.883 402.805Z" fill="#FFD4CA"/>
<path d="M197.56 356.112L194.353 325.179L217.076 322.823L220.527 356.112C210.629 354.214 197.56 356.112 197.56 356.112Z" fill="#FDB1A1"/>
<path d="M228.622 290.755C222.429 255.148 215.464 180.332 176.25 206.648C120.633 248.752 158.091 272.956 158.091 272.956L173.855 270.196L170.838 350.371C216.432 341.344 238.491 346.761 238.491 346.761C238.491 346.761 234.814 326.356 228.622 290.755Z" fill="#285656"/>
<path d="M434 197.413H0V189.501H434V197.413Z" fill="#4C7171"/>
<path d="M265.321 189.501H168.676L164.85 130.615C164.696 128.244 166.577 126.236 168.952 126.236H265.047C267.42 126.236 269.301 128.244 269.149 130.615L265.321 189.501Z" fill="#7AA8A8"/>
<path d="M227.644 157.982C226.849 163.004 222.098 166.35 216.998 166.35C211.899 166.35 207.148 163.004 206.353 157.982C205.558 152.962 210.304 147.939 216.998 147.939C223.693 147.939 228.439 152.962 227.644 157.982Z" fill="white"/>
<path d="M72.587 189.743H50.2825L46.1704 148.891H76.6991L72.587 189.743Z" fill="white"/>
<path d="M78.7524 148.891H44.114V145.204H78.7524V148.891Z" fill="#7AA8A8"/>
<path d="M76.6991 145.204H46.1704L48.2241 141.515H74.6406L76.6991 145.204Z" fill="#164343"/>
<path d="M68.7507 164.871C68.7507 168.913 65.4745 172.19 61.432 172.19C57.392 172.19 54.1157 168.913 54.1157 164.871C54.1157 160.831 57.392 157.552 61.432 157.552C65.4745 157.552 68.7507 160.831 68.7507 164.871Z" fill="#16A571"/>
<path d="M403.92 183.409C403.92 185.316 402.374 186.865 400.464 186.865H351.284C353.194 186.865 354.743 185.316 354.743 183.409C354.743 181.507 353.194 179.96 351.284 179.96H400.464C402.374 179.96 403.92 181.507 403.92 183.409Z" fill="white"/>
<path d="M181.113 110.714C180.594 109.534 180.004 108.391 179.349 107.29C171.422 93.954 153.878 86.7231 138.931 91.2181C137.41 91.6742 135.907 92.2485 134.577 93.0417C133.767 93.5236 133.021 94.0855 132.367 94.7502C130.645 96.4971 129.676 99.1183 130.368 101.372C130.484 101.755 130.644 102.113 130.842 102.447C131.595 103.715 132.92 104.634 134.434 105.078C135.948 105.524 137.635 105.488 139.069 104.9C139.436 104.75 139.787 104.574 140.123 104.374C142.816 102.779 144.544 99.6021 145.027 96.3835C145.611 92.5154 144.624 88.6694 142.612 85.2873C140.322 81.4389 136.702 78.2083 132.625 76.2945C124.943 72.6806 115.969 72.7993 107.439 73.9438C107.176 73.9786 106.933 73.7936 106.898 73.5301C106.863 73.2659 107.048 73.0235 107.312 72.9887C115.915 71.8389 125.074 71.6852 133.036 75.4221C137.288 77.422 141.041 80.769 143.439 84.7949C145.544 88.3296 146.602 92.4024 145.979 96.5275C145.456 99.9726 143.631 103.4 140.616 105.202C140.24 105.426 139.845 105.624 139.433 105.792C137.766 106.472 135.871 106.503 134.163 106.003C132.456 105.5 130.92 104.458 130.014 102.94C129.777 102.541 129.585 102.11 129.445 101.651C128.636 98.9446 129.768 96.0242 131.68 94.075C132.401 93.342 133.216 92.7306 134.084 92.2138C135.513 91.363 137.087 90.7654 138.654 90.2954C154.079 85.683 171.996 93.0746 180.176 106.797C180.852 107.931 181.46 109.109 181.994 110.326C182.102 110.571 181.991 110.854 181.747 110.962C181.503 111.069 181.219 110.958 181.113 110.714Z" fill="white"/>
<path d="M118.212 80.8429L106.658 73.5846L115.28 62.9966C115.448 62.7909 115.752 62.7594 115.958 62.9276C116.164 63.0953 116.196 63.3988 116.027 63.6045L108.093 73.3478L118.725 80.0272C118.951 80.1683 119.018 80.4658 118.877 80.6914C118.735 80.9161 118.438 80.9841 118.212 80.8429Z" fill="white"/>
</svg>
