<svg width="13" height="12" viewBox="0 0 13 12" fill="none" xmlns="http://www.w3.org/2000/svg">
<path d="M2.7771 5.19333C3.7371 7.08 5.28377 8.62 7.17044 9.58667L8.6371 8.12C8.8171 7.94 9.08377 7.88 9.3171 7.96C10.0638 8.20667 10.8704 8.34 11.6971 8.34C12.0638 8.34 12.3638 8.64 12.3638 9.00667V11.3333C12.3638 11.7 12.0638 12 11.6971 12C5.4371 12 0.36377 6.92667 0.36377 0.666667C0.36377 0.3 0.66377 0 1.03044 0H3.36377C3.73044 0 4.03044 0.3 4.03044 0.666667C4.03044 1.5 4.16377 2.3 4.41044 3.04667C4.48377 3.28 4.43044 3.54 4.24377 3.72667L2.7771 5.19333Z" fill="white"/>
</svg>
