<svg width="26" height="26" viewBox="0 0 26 26" fill="none" xmlns="http://www.w3.org/2000/svg">
<path fill-rule="evenodd" clip-rule="evenodd" d="M13 26C20.1797 26 26 20.1797 26 13C26 5.8203 20.1797 0 13 0C5.8203 0 0 5.8203 0 13C0 20.1797 5.8203 26 13 26Z" fill="white"/>
<path d="M7.39209 13.3257H10.5465V20.2533C10.5465 20.4354 10.7035 20.5832 10.897 20.5832H15.1028C15.2963 20.5832 15.4533 20.4354 15.4533 20.2533V13.3257H18.6077C18.7395 13.3257 18.86 13.2561 18.92 13.1456C18.9799 13.0351 18.9687 12.9022 18.8909 12.8019L13.2831 5.54442C13.1513 5.37387 12.8481 5.37387 12.7163 5.54442L7.10855 12.8019C7.03109 12.9022 7.01988 13.0351 7.07946 13.1456C7.13974 13.2561 7.26031 13.3257 7.39209 13.3257Z" fill="#16A571"/>
</svg>
