<svg width="61" height="61" viewBox="0 0 61 61" fill="none" xmlns="http://www.w3.org/2000/svg">
<circle cx="30.3373" cy="30.3373" r="30.3373" fill="#4999E2"/>
<path d="M44.5832 24.9491C44.5832 26.5074 43.3082 27.7824 41.7498 27.7824C41.4948 27.7824 41.254 27.7541 41.0273 27.6832L35.984 32.7124C36.0548 32.9391 36.0832 33.1941 36.0832 33.4491C36.0832 35.0074 34.8082 36.2824 33.2498 36.2824C31.6915 36.2824 30.4165 35.0074 30.4165 33.4491C30.4165 33.1941 30.4448 32.9391 30.5157 32.7124L26.9032 29.0999C26.6765 29.1707 26.4215 29.1991 26.1665 29.1991C25.9115 29.1991 25.6565 29.1707 25.4298 29.0999L18.984 35.5599C19.0548 35.7866 19.0832 36.0274 19.0832 36.2824C19.0832 37.8407 17.8082 39.1157 16.2498 39.1157C14.6915 39.1157 13.4165 37.8407 13.4165 36.2824C13.4165 34.7241 14.6915 33.4491 16.2498 33.4491C16.5048 33.4491 16.7457 33.4774 16.9723 33.5482L23.4323 27.1024C23.3615 26.8757 23.3332 26.6207 23.3332 26.3657C23.3332 24.8074 24.6082 23.5324 26.1665 23.5324C27.7248 23.5324 28.9998 24.8074 28.9998 26.3657C28.9998 26.6207 28.9715 26.8757 28.9007 27.1024L32.5132 30.7149C32.7398 30.6441 32.9948 30.6157 33.2498 30.6157C33.5048 30.6157 33.7598 30.6441 33.9865 30.7149L39.0157 25.6716C38.9448 25.4449 38.9165 25.2041 38.9165 24.9491C38.9165 23.3907 40.1915 22.1157 41.7498 22.1157C43.3082 22.1157 44.5832 23.3907 44.5832 24.9491Z" fill="white"/>
</svg>
