<svg width="496" height="382" viewBox="0 0 496 382" fill="none" xmlns="http://www.w3.org/2000/svg">
<g opacity="0.3">
<path d="M36.2459 314.315C31.2706 314.315 26.2954 315.409 22.5064 317.596C19.2627 319.468 17.4777 321.82 17.4777 324.221C17.4777 326.621 19.2627 328.974 22.5064 330.846C30.0817 335.223 42.41 335.223 49.9881 330.846H49.9909C53.2319 328.974 55.0167 326.624 55.0167 324.223C55.0167 321.823 53.2318 319.468 49.9881 317.596C46.199 315.409 41.2239 314.315 36.2459 314.315ZM36.2486 338.659C30.4863 338.659 24.7297 337.364 20.238 334.773C15.5354 332.057 12.9438 328.31 12.9438 324.221C12.9438 320.133 15.5354 316.387 20.238 313.671C29.2187 308.488 43.2814 308.491 52.2565 313.671C56.9591 316.387 59.5506 320.136 59.5506 324.223C59.5506 328.313 56.9591 332.057 52.2565 334.773C47.7676 337.364 42.0081 338.659 36.2486 338.659Z" fill="#16A571"/>
</g>
<g opacity="0.4">
<path d="M426.509 3.31156C422.872 3.31156 419.235 4.1111 416.465 5.70998C414.093 7.07851 412.789 8.79779 412.789 10.5532C412.789 12.3079 414.093 14.028 416.465 15.3965C422.003 18.5961 431.015 18.5961 436.555 15.3965H436.557C438.926 14.028 440.231 12.3104 440.231 10.5549C440.231 8.80027 438.926 7.07851 436.555 5.70998C433.785 4.1111 430.148 3.31156 426.509 3.31156ZM426.511 21.1084C422.298 21.1084 418.09 20.1613 414.806 18.267C411.369 16.282 409.474 13.5424 409.474 10.5532C409.474 7.56488 411.369 4.82619 414.806 2.8412C421.372 -0.948351 431.652 -0.945885 438.213 2.8412C441.651 4.82619 443.545 7.56736 443.545 10.5549C443.545 13.5449 441.651 16.282 438.213 18.267C434.932 20.1613 430.721 21.1084 426.511 21.1084Z" fill="#16A571"/>
</g>
<path d="M3.30949 179.295H126.211C127.401 179.295 128.365 178.332 128.365 177.142V82.6404C128.365 81.4508 127.401 80.4869 126.211 80.4869H3.30949C2.11988 80.4869 1.15601 81.4508 1.15601 82.6404V177.142C1.15601 178.332 2.11988 179.295 3.30949 179.295Z" stroke="#FF5D53" stroke-width="2"/>
<path d="M13.3719 87.724C12.1194 87.724 11.0978 88.7456 11.0978 90.0034C11.0978 91.2558 12.1194 92.2774 13.3719 92.2774C14.627 92.2774 15.6512 91.2558 15.6512 90.0034C15.6512 88.7456 14.627 87.724 13.3719 87.724ZM13.3719 92.6223C11.9284 92.6223 10.7502 91.4468 10.7502 90.0034C10.7502 88.5572 11.9284 87.3791 13.3719 87.3791C14.818 87.3791 15.9962 88.5572 15.9962 90.0034C15.9962 91.4468 14.818 92.6223 13.3719 92.6223Z" fill="#FF5D53" stroke="#FF5D53"/>
<path d="M22.8929 87.724C21.6378 87.724 20.6162 88.7456 20.6162 90.0034C20.6162 91.2558 21.6378 92.2774 22.8929 92.2774C24.1453 92.2774 25.1696 91.2558 25.1696 90.0034C25.1696 88.7456 24.1453 87.724 22.8929 87.724ZM22.8929 92.6223C21.4467 92.6223 20.2712 91.4468 20.2712 90.0034C20.2712 88.5572 21.4467 87.3791 22.8929 87.3791C24.3364 87.3791 25.5145 88.5572 25.5145 90.0034C25.5145 91.4468 24.3364 92.6223 22.8929 92.6223Z" fill="#FF5D53" stroke="#FF5D53"/>
<path d="M32.4107 87.724C31.1556 87.724 30.134 88.7456 30.134 90.0034C30.134 91.2558 31.1556 92.2774 32.4107 92.2774C33.6658 92.2774 34.6874 91.2558 34.6874 90.0034C34.6874 88.7456 33.6658 87.724 32.4107 87.724ZM32.4107 92.6223C30.9645 92.6223 29.7891 91.4468 29.7891 90.0034C29.7891 88.5572 30.9645 87.3791 32.4107 87.3791C33.8568 87.3791 35.0323 88.5572 35.0323 90.0034C35.0323 91.4468 33.8568 92.6223 32.4107 92.6223Z" fill="#FF5D53" stroke="#FF5D53"/>
<path d="M129 99.3894H1V99.0435H129V99.3894Z" fill="white" stroke="#FF5D53"/>
<path d="M75.9025 180.251C75.9025 173.979 70.8152 168.889 64.5398 168.889C58.2645 168.889 53.1772 173.979 53.1772 180.251C53.1772 186.529 58.2645 191.614 64.5398 191.614C70.8152 191.614 75.9025 186.529 75.9025 180.251Z" fill="white"/>
<path d="M71.552 180.252C71.552 176.382 68.414 173.241 64.5412 173.241C60.6711 173.241 57.5303 176.382 57.5303 180.252C57.5303 184.125 60.6711 187.263 64.5412 187.263C68.414 187.263 71.552 184.125 71.552 180.252Z" fill="#FF5D53"/>
<path d="M288.65 102.764C288.65 96.4876 283.565 91.4026 277.288 91.4026C271.012 91.4026 265.923 96.4876 265.923 102.764C265.923 109.041 271.012 114.126 277.288 114.126C283.565 114.126 288.65 109.041 288.65 102.764Z" fill="white"/>
<path d="M284.299 102.764C284.299 98.8912 281.163 95.7511 277.287 95.7511C273.414 95.7511 270.278 98.8912 270.278 102.764C270.278 106.632 273.414 109.772 277.287 109.772C281.163 109.772 284.299 106.632 284.299 102.764Z" fill="#16A571"/>
<path d="M288.206 103.519H287.706V103.019V102.777C287.706 96.9093 282.941 92.1438 277.084 92.1438C271.231 92.1438 266.466 96.9096 266.466 102.765V103.007V103.483L265.99 103.506L265.747 103.518L265.735 103.519H265.723H215.635C213.483 103.519 211.739 101.771 211.739 99.6218V5.12232C211.739 2.97111 213.484 1.22591 215.635 1.22591H338.537C340.688 1.22591 342.433 2.97111 342.433 5.12232V99.6218C342.433 101.771 340.688 103.519 338.537 103.519H288.206ZM215.635 102.035H265.004C265.387 95.6922 270.66 90.66 277.084 90.66C283.516 90.66 288.789 95.6989 289.168 102.035H338.537C339.867 102.035 340.951 100.953 340.951 99.6218V5.12232C340.951 3.79313 339.866 2.70796 338.537 2.70796H215.635C214.306 2.70796 213.221 3.79313 213.221 5.12232V99.6218C213.221 100.953 214.305 102.035 215.635 102.035Z" fill="#16A571" stroke="#16A571"/>
<path d="M226.053 9.27689C224.838 9.27689 223.846 10.2682 223.846 11.4831C223.846 12.7018 224.838 13.6931 226.053 13.6931C227.271 13.6931 228.259 12.7018 228.259 11.4831C228.259 10.2682 227.271 9.27689 226.053 9.27689ZM226.053 14.1738C224.569 14.1738 223.362 12.9664 223.362 11.4831C223.362 9.99989 224.569 8.79242 226.053 8.79242C227.536 8.79242 228.743 9.99989 228.743 11.4831C228.743 12.9664 227.536 14.1738 226.053 14.1738Z" fill="#16A571" stroke="#16A571"/>
<path d="M235.569 9.27577C234.354 9.27577 233.362 10.2674 233.362 11.4863C233.362 12.7013 234.354 13.693 235.569 13.693C236.787 13.693 237.775 12.7013 237.775 11.4863C237.775 10.2674 236.787 9.27577 235.569 9.27577ZM235.569 14.1775C234.089 14.1775 232.877 12.97 232.877 11.4863C232.877 10.0025 234.089 8.79505 235.569 8.79505C237.052 8.79505 238.26 10.0025 238.26 11.4863C238.26 12.97 237.052 14.1775 235.569 14.1775Z" fill="#16A571" stroke="#16A571"/>
<path d="M245.09 9.27916C243.872 9.27916 242.884 10.2669 242.884 11.4853C242.884 12.7037 243.872 13.6915 245.09 13.6915C246.305 13.6915 247.296 12.7037 247.296 11.4853C247.296 10.2669 246.305 9.27916 245.09 9.27916ZM245.09 14.1758C243.607 14.1758 242.4 12.9689 242.4 11.4853C242.4 10.0017 243.607 8.79485 245.09 8.79485C246.57 8.79485 247.781 10.0017 247.781 11.4853C247.781 12.9689 246.57 14.1758 245.09 14.1758Z" fill="#16A571" stroke="#16A571"/>
<path d="M342.393 21.9382V22.4382H341.893H212.679H212.179V21.9382V21.4563V20.9563H212.679H341.893H342.393V21.4563V21.9382Z" fill="#16A571" stroke="#16A571"/>
<path d="M65.267 196.156H63.8186V194.222H65.267V196.156ZM65.267 201.958H63.8186V200.024H65.267V201.958ZM65.267 207.76H63.8186V205.826H65.267V207.76ZM65.267 213.563H63.8186V211.628H65.267V213.563ZM65.267 219.365H63.8186V217.431H65.267V219.365ZM65.267 225.167H63.8186V223.233H65.267V225.167ZM65.267 230.969H63.8186V229.035H65.267V230.969ZM65.267 236.772H63.8186V234.837H65.267V236.772ZM65.267 242.574H63.8186V240.64H65.267V242.574ZM65.267 248.376H63.8186V246.442H65.267V248.376ZM65.267 254.178H63.8186V252.244H65.267V254.178ZM65.267 259.981H63.8186V258.046H65.267V259.981ZM64.0473 265.858C63.9711 265.207 63.9109 264.545 63.8708 263.887L65.3192 263.803C65.3593 264.432 65.4155 265.063 65.4917 265.684L64.0473 265.858ZM65.2991 271.651C65.1025 271.024 64.922 270.384 64.7655 269.748L66.1698 269.397C66.3223 270.007 66.4948 270.618 66.6833 271.215L65.2991 271.651ZM67.6022 277.117C67.2892 276.536 66.9923 275.939 66.7195 275.345L68.0395 274.74C68.3003 275.308 68.5851 275.879 68.878 276.432L67.6022 277.117ZM70.8681 282.066C70.4548 281.553 70.0576 281.021 69.6765 280.484L70.8601 279.648C71.2252 280.161 71.6063 280.668 71.9995 281.159L70.8681 282.066ZM74.9806 286.33C74.4831 285.903 73.9936 285.453 73.5242 284.993L74.5353 283.954C74.9846 284.394 75.4541 284.822 75.9275 285.233L74.9806 286.33ZM79.8033 289.771C79.2376 289.439 78.6719 289.089 78.1262 288.724L78.9327 287.517C79.4542 287.865 79.9919 288.202 80.5336 288.518L79.8033 289.771ZM85.1717 292.268C84.5538 292.048 83.9359 291.806 83.3301 291.548L83.9038 290.213C84.4816 290.46 85.0714 290.692 85.6572 290.902L85.1717 292.268ZM90.9132 293.731C90.2672 293.629 89.6132 293.503 88.9713 293.363L89.2882 291.947C89.8981 292.082 90.524 292.2 91.1418 292.297L90.9132 293.731ZM96.8071 294.127H95.9726C95.5954 294.127 95.2183 294.12 94.8492 294.108L94.9013 292.657C95.2544 292.669 95.6155 292.676 95.9726 292.676H96.8071V294.127ZM102.609 294.127H100.675V292.676H102.609V294.127ZM108.41 294.127H106.477V292.676H108.41V294.127ZM114.216 294.127H112.282V292.676H114.216V294.127ZM120.018 294.127H118.084V292.676H120.018V294.127ZM125.82 294.127H123.886V292.676H125.82V294.127ZM131.621 294.127H129.687V292.676H131.621V294.127ZM137.423 294.127H135.489V292.676H137.423V294.127ZM143.225 294.127H141.291V292.676H143.225V294.127ZM149.03 294.127H147.092V292.676H149.03V294.127ZM154.832 294.127H152.898V292.676H154.832V294.127ZM160.634 294.127H158.7V292.676H160.634V294.127ZM166.435 294.127H164.501V292.676H166.435V294.127ZM172.237 294.127H170.303V292.676H172.237V294.127ZM178.039 294.127H176.105V292.676H178.039V294.127ZM183.84 294.127H181.906V292.676H183.84V294.127ZM189.646 294.127H187.712V292.676H189.646V294.127ZM195.448 294.127H193.514V292.676H195.448V294.127ZM201.249 294.127H199.315V292.676H201.249V294.127ZM207.051 294.127H205.117V292.676H207.051V294.127ZM212.853 294.127H210.919V292.676H212.853V294.127ZM218.654 294.127H216.72V292.676H218.654V294.127ZM224.46 294.127H222.522V292.676H224.46V294.127ZM230.262 294.127H228.328V292.676H230.262V294.127ZM236.063 294.127H234.13V292.676H236.063V294.127ZM241.865 294.127H239.931V292.676H241.865V294.127ZM247.667 294.127H245.733V292.676H247.667V294.127ZM253.468 294.127H251.535V292.676H253.468V294.127ZM259.27 294.127H257.336V292.676H259.27V294.127ZM265.076 294.127H263.142V292.676H265.076V294.127ZM270.877 294.127H268.944V292.676H270.877V294.127ZM275.279 294.127H274.745V292.676H275.279V294.127Z" fill="#16A571"/>
<path d="M281.466 119.679H280.012V117.745H281.466V119.679ZM281.466 125.482H280.012V123.547H281.466V125.482ZM281.466 131.284H280.012V129.35H281.466V131.284ZM281.466 137.086H280.012V135.152H281.466V137.086ZM281.466 142.888H280.012V140.954H281.466V142.888ZM281.466 148.69H280.012V146.756H281.466V148.69ZM281.466 154.493H280.012V152.559H281.466V154.493ZM281.466 160.295H280.012V158.361H281.466V160.295ZM280.201 166.17C280.131 165.517 280.078 164.855 280.047 164.197L281.497 164.13C281.524 164.756 281.576 165.389 281.642 166.011L280.201 166.17ZM281.431 171.974C281.234 171.348 281.053 170.708 280.895 170.067L282.306 169.721C282.455 170.328 282.626 170.94 282.815 171.535L281.431 171.974ZM283.778 177.431C283.457 176.853 283.158 176.259 282.877 175.664L284.191 175.047C284.454 175.615 284.744 176.181 285.047 176.73L283.778 177.431ZM287.134 182.324C286.712 181.821 286.295 181.297 285.908 180.767L287.077 179.909C287.446 180.412 287.842 180.912 288.241 181.391L287.134 182.324ZM291.37 186.476C290.856 186.064 290.355 185.629 289.867 185.184L290.851 184.116C291.313 184.542 291.792 184.955 292.279 185.346L291.37 186.476ZM296.326 189.732C295.746 189.425 295.166 189.099 294.608 188.755L295.359 187.517C295.895 187.844 296.449 188.156 296.998 188.446L296.326 189.732ZM301.827 191.961C301.194 191.775 300.561 191.565 299.946 191.337L300.447 189.976C301.031 190.194 301.633 190.392 302.235 190.569L301.827 191.961ZM307.652 193.076C306.998 193.015 306.339 192.933 305.689 192.831L305.913 191.398C306.532 191.494 307.16 191.572 307.784 191.63L307.652 193.076ZM313.439 193.353C312.815 193.291 312.182 193.245 311.554 193.223L311.611 191.773C312.266 191.797 312.934 191.842 313.584 191.91L313.439 193.353ZM318.975 194.473C318.377 194.289 317.762 194.122 317.152 193.98L317.485 192.568C318.127 192.718 318.773 192.894 319.401 193.085L318.975 194.473ZM324.19 196.653C323.637 196.356 323.065 196.073 322.499 195.812L323.105 194.495C323.698 194.768 324.296 195.065 324.876 195.377L324.19 196.653ZM328.883 199.806C328.395 199.407 327.894 199.02 327.384 198.656L328.232 197.478C328.764 197.863 329.296 198.269 329.801 198.687L328.883 199.806ZM332.872 203.808C332.476 203.324 332.059 202.845 331.629 202.388L332.687 201.397C333.14 201.878 333.575 202.379 333.992 202.886L332.872 203.808ZM336.013 208.498C335.719 207.949 335.403 207.4 335.069 206.868L336.303 206.099C336.65 206.658 336.984 207.233 337.296 207.813L336.013 208.498ZM338.188 213.71C338.004 213.113 337.802 212.511 337.578 211.926L338.935 211.413C339.168 212.027 339.383 212.658 339.572 213.287L338.188 213.71ZM339.3 219.249C339.238 218.625 339.155 217.996 339.054 217.38L340.482 217.14C340.592 217.789 340.679 218.448 340.745 219.104L339.3 219.249ZM340.899 224.971H339.449V223.037H340.899V224.971ZM340.899 230.773H339.449V228.839H340.899V230.773Z" fill="#16A571"/>
<path d="M233.546 351.904L245.131 353.144L245.357 360.344L234.97 359.887C234.572 357.351 233.986 354.242 233.546 351.904Z" fill="#FF9E8C"/>
<path d="M245.53 368.935L245.358 360.343L234.972 359.886L235.221 369.605L245.53 368.935Z" fill="#FFFAF9"/>
<path d="M265.81 379.049H259.435C258.993 374.269 257.482 372.447 257.427 372.381C258.403 372.545 259.511 372.736 260.713 372.947C264.857 373.667 265.45 377.195 265.81 379.049Z" fill="#101010"/>
<path d="M239.02 379.049H234.116L234.685 374.175C237.126 374.458 239.02 376.53 239.02 379.049Z" fill="#101010"/>
<path d="M174.661 352.753H163.006L162.015 359.887H172.624C173.289 357.409 173.972 355.03 174.661 352.753Z" fill="#FF9E8C"/>
<path d="M163.129 369.91L161.059 365.597L162.016 359.887H172.623L171.369 369.606L163.129 369.91Z" fill="#FFFAF9"/>
<path d="M140.775 379.049H147.149C147.592 374.269 149.105 372.446 149.157 372.381C148.182 372.545 147.074 372.736 145.869 372.946C141.727 373.667 141.135 377.194 140.775 379.049Z" fill="#101010"/>
<path d="M167.563 379.049H172.47L171.902 374.175C169.46 374.458 167.563 376.529 167.563 379.049Z" fill="#101010"/>
<path d="M259.435 379.046C258.992 374.269 257.482 372.447 257.427 372.381C254.979 371.961 253.393 371.699 253.393 371.699L245.525 365.597C245.525 365.597 242.381 369.606 235.216 369.606L234.682 374.175C237.126 374.458 239.02 376.53 239.02 379.046H234.113V381.776H265.809V379.046H259.435Z" fill="#101010"/>
<path d="M171.902 374.175L171.371 369.605C164.202 369.605 161.057 365.597 161.057 365.597L153.188 371.699C153.188 371.699 151.602 371.96 149.158 372.381C149.103 372.446 147.592 374.269 147.149 379.046H140.775V381.776H172.47V379.046H167.563C167.563 376.53 169.46 374.458 171.902 374.175Z" fill="#101010"/>
<path d="M244.023 294.186C244.061 293.84 244.072 293.497 244.061 293.158L244.512 216.911C244.539 216.408 244.539 215.91 244.52 215.415C244.52 215.388 244.516 215.369 244.516 215.347L244.551 215.333V199.389H179.468L178.281 215.867C178.205 216.36 178.155 216.856 178.128 217.359L170.459 293.221C170.413 293.557 170.386 293.9 170.386 294.246L163.007 352.752L179.399 354.551C186.935 329.584 187.635 305.788 191.731 286.877C196.476 268.412 204.954 242.487 209.06 228.028H213.293C216.057 243.29 221.051 267.239 223.585 284.585C225.644 303.825 224.488 328.924 229.322 354.551L245.133 353.144L244.023 294.186Z" fill="#164343"/>
<path d="M201.185 228.027C202.897 227.727 204.61 227.573 206.32 227.459C208.033 227.353 209.745 227.305 211.458 227.302C213.171 227.302 214.881 227.353 216.593 227.457C218.306 227.57 220.016 227.725 221.729 228.027C220.016 228.33 218.306 228.487 216.593 228.598C214.881 228.704 213.171 228.755 211.458 228.753C209.745 228.753 208.033 228.702 206.32 228.595C204.61 228.484 202.897 228.33 201.185 228.027Z" fill="#164343"/>
<path d="M172.471 361.202L162.009 360.109L162.161 358.668L172.623 359.759L172.471 361.202Z" fill="#FFFAF9"/>
<path d="M234.986 361.269L234.959 359.819L245.346 359.618L245.373 361.069L234.986 361.269Z" fill="#FFFAF9"/>
<path d="M177.913 219.491L178.542 212.221L178.283 215.867C178.207 216.36 178.156 216.856 178.129 217.358L177.913 219.491Z" fill="#164343"/>
<path d="M177.916 219.491L178.13 217.358C178.157 216.855 178.206 216.36 178.283 215.866L178.543 212.221L244.522 206.363V209.66L177.916 219.491Z" fill="#164343"/>
<path d="M222.275 73.7225C221.773 64.5026 219.22 53.3864 219.22 53.3864C218.11 47.9297 200.884 47.1623 193.442 53.3864C185.993 59.6104 191.771 68.7233 194.029 76.0579C194.121 76.3456 194.213 76.6261 194.306 76.9028L196.379 102.766L218.519 98.1022L216.634 86.7794C222.083 85.477 222.662 80.8689 222.275 73.7225Z" fill="#FFD4CA"/>
<path d="M217.437 91.5798L216.636 86.7777C217.009 89.016 217.437 91.5798 217.437 91.5798Z" fill="#FFC5BA"/>
<path d="M217.437 91.5798L212.05 87.5165C213.996 87.4068 215.532 87.0886 216.636 86.7777L217.437 91.5798Z" fill="#F4AB9A"/>
<path d="M224.397 45.5365C224.196 44.6783 223.895 43.8238 223.416 43.0436C223.182 42.6572 222.911 42.282 222.599 41.9439C222.287 41.6021 221.941 41.2863 221.562 41.0188C221.183 40.7476 220.778 40.5135 220.358 40.3166C219.931 40.1271 219.489 39.9822 219.039 39.8745C218.14 39.659 217.215 39.607 216.312 39.6961C215.406 39.7816 214.511 40.0082 213.689 40.3612C212.861 40.7141 212.103 41.1823 211.405 41.7098C210.962 42.0628 210.539 42.4417 210.156 42.8504C212.686 32.7004 196.856 37.4224 192.13 45.4957C192.119 45.3545 192.1 45.2133 192.078 45.0721C191.97 44.251 191.639 43.5006 191.261 42.8021C191.045 42.464 190.822 42.1371 190.577 41.8324C190.306 41.5389 190.031 41.2566 189.726 41.0039C189.812 41.4015 189.934 41.7655 190.057 42.1222C190.161 42.4863 190.276 42.8393 190.391 43.1848C190.581 43.8907 190.796 44.5705 190.889 45.2616C190.986 45.8932 191.034 46.5285 190.986 47.1638C190.495 46.77 189.904 46.4802 189.28 46.3539C188.392 46.1681 187.493 46.2796 186.706 46.5619C185.911 46.848 185.212 47.3013 184.651 47.9106C185.476 47.8437 186.226 47.7174 186.951 47.6765C187.672 47.6282 188.352 47.6431 188.983 47.7731C189.373 47.8548 189.745 47.9886 190.109 48.1669C186.535 48.479 183.73 51.4809 183.73 55.1367C183.73 57.1838 184.61 59.0266 186.011 60.3083C187.062 61.5864 189.039 64.5437 190.722 70.228C191.097 72.0708 191.554 73.895 192.03 75.5928C193.375 80.4301 194.849 84.2865 194.942 84.8549C198.528 86.4859 204.468 84.8698 206.842 82.9565C211.512 79.1929 212.686 72.9067 212.95 71.3686C213.244 69.6707 212.423 67.1667 214.109 67.3079C219.325 67.75 218.791 59.595 217.145 55.642C217.936 55.3596 218.705 54.9584 219.448 54.416C219.656 55.4079 219.89 56.5559 219.89 56.5559C226.871 54.3825 224.311 38.3587 213.95 41.2714L214.013 41.2491C214.797 41.0076 215.588 40.8702 216.394 40.8367C217.193 40.7996 217.995 40.859 218.761 41.0485C219.53 41.2268 220.258 41.5352 220.908 41.9624C221.566 42.386 222.145 42.9358 222.628 43.5786C223.115 44.2176 223.516 44.9421 223.828 45.7148C224.159 46.4839 224.397 47.3013 224.623 48.1372C224.668 47.2715 224.583 46.3985 224.397 45.5365Z" fill="#101010"/>
<path d="M215.286 74.3101C205.238 68.3252 209.455 56.0996 216.525 66.5275C216.854 71.0582 215.286 74.3101 215.286 74.3101Z" fill="#FFD4CA"/>
<path d="M214.573 69.8689C213.913 69.8689 213.096 69.2744 212.56 68.3335C212.035 67.4071 211.933 66.4261 212.246 65.8535C212.173 65.8389 212.097 65.828 212.02 65.817C211.681 65.7805 211.334 65.7513 210.973 65.7513C210.838 65.7513 210.7 65.755 210.561 65.7659C210.762 65.5909 211.014 65.4997 211.258 65.4085C211.502 65.3283 211.761 65.2736 212.027 65.2481C212.133 65.2371 212.239 65.2335 212.348 65.2335C212.68 65.2335 213.019 65.2809 213.344 65.3866C213.949 65.5216 214.62 66.076 215.087 66.8929C215.758 68.0746 215.74 69.351 215.04 69.7486C214.901 69.8324 214.741 69.8689 214.573 69.8689Z" fill="#F4AB9A"/>
<path d="M246.31 101.369C244.139 98.4732 240.824 96.4392 236.942 96.0002C235.564 95.8472 234.211 95.9036 232.914 96.1452L222.37 97.0675L219.365 92.3513L193.613 94.6228L192.236 99.7137L180.942 100.704C180.902 100.704 180.854 100.708 180.809 100.713L180.769 100.717C179.037 100.898 177.309 101.413 175.682 102.295C172.247 104.16 169.939 107.29 169.017 110.794L155.79 161.949C155.79 161.949 170.664 168.805 171.115 167.785C171.288 167.398 174.708 160.406 178.884 151.884L179.5 157.699L175.779 212.467L247.015 206.143L242.806 150.211L244.441 135.86C254.631 144.977 265.352 154.577 265.767 154.981C266.573 155.755 277.781 143.814 277.781 143.814L246.31 101.369Z" fill="#16A571"/>
<path d="M301.861 101.019C301.443 100.898 299.982 100.448 299.556 100.335C299.576 100.222 299.593 100.109 299.614 99.9878C299.844 98.5779 299.179 97.6951 298.079 97.3771C297.497 97.2056 296.489 96.896 295.899 96.7412C295.732 95.9337 295.167 95.4107 294.376 95.1764C292.405 94.599 290.728 94.2476 290.728 94.2476C291.351 90.7039 292.69 86.8087 293 84.7879C293.681 80.2777 290.636 78.3782 289.782 81.2777C288.929 84.1729 285.41 96.9085 285.41 96.9085C285.205 97.5738 280.896 108.175 283.787 112.205L281.285 116.303L281.251 116.288L278.327 121.048L270.436 133.91L268.993 131.967L256.064 146.269C260.558 150.292 264.097 153.469 265.319 154.571C265.461 154.711 265.608 154.847 265.763 154.977C266.972 155.997 268.478 156.679 270.16 156.868C273.992 157.301 277.507 155.038 278.812 151.59L289.088 126.225L291.18 121.063L293.489 115.423C297.192 113.972 299.798 109.812 301.179 106.132C302.007 106.253 302.514 106.105 302.748 104.949C302.748 104.949 302.89 104.208 303.074 103.086C303.254 101.971 302.727 101.273 301.861 101.019Z" fill="#F4AB9A"/>
<path d="M251.623 142.29C249.113 140.044 247.079 138.226 244.438 135.862L246.143 120.72L251.623 142.29Z" fill="#16A571"/>
<path d="M275.129 139.754L270.436 133.911L273.653 128.674L275.129 139.754Z" fill="#F1694B"/>
<path d="M171.116 167.781C171.211 167.607 171.296 167.423 171.378 167.239C172.094 165.757 174.207 161.438 176.879 155.978L159.482 147.664L158.415 151.802L146.404 145.558L140.088 142.275L133.864 139.04C133.574 137.704 132.885 136.17 131.488 134.531C127.125 129.422 123.788 125.471 123.788 125.471C123.788 125.471 121.32 120.979 120.502 119.55C119.681 118.122 116.644 119.622 119.405 124.813C121.317 128.402 121.825 131.947 121.825 131.947C121.825 131.947 119.636 131.634 117.922 131.439C117.922 131.439 104.294 129.408 101.298 129.023C98.3057 128.641 98.817 132.196 103.221 133.382C104.799 133.805 108.071 134.62 111.108 135.366C106.224 135.199 100.45 134.94 98.7488 134.868C95.7356 134.742 95.6743 137.96 98.9942 138.464C95.9845 138.202 96.6321 141.733 101.08 142.735C102.29 143.008 107.376 144.354 110.038 144.866C108.286 144.787 104.482 144.61 103.821 144.59C101.513 144.528 102.151 147.183 105.586 147.749C108.211 148.179 118.491 149.454 118.491 149.454C121.641 149.842 125.799 149.638 129.01 148.087L134.222 152.007L139.927 156.298L158.821 170.505C161.326 172.403 164.81 172.782 167.751 171.183C169.241 170.375 170.379 169.179 171.116 167.785V167.781Z" fill="#FF9E8C"/>
<path d="M175.158 159.494V159.491C175.24 159.321 175.325 159.151 175.41 158.977C175.331 159.137 175.246 159.311 175.158 159.494Z" fill="#FFBBB2"/>
<path d="M176.876 155.974L175.358 155.249L176.548 129.888L178.854 151.941C177.851 153.983 177.29 155.129 176.876 155.974Z" fill="#16A571"/>
<path d="M175.157 159.491L175.359 155.251L176.875 155.977C176.347 157.057 176.061 157.644 175.41 158.976C175.325 159.15 175.243 159.321 175.157 159.491Z" fill="#F1694B"/>
<path d="M195.152 101.13L191.155 99.8075L222.372 97.0703L223.388 96.9817L220.152 98.8803L195.152 101.13Z" fill="#16A571"/>
<path d="M292.33 118.242L291.314 120.723L283.961 117.715L284.978 115.235L292.33 118.242Z" fill="#164343"/>
<path d="M288.015 116.003C288.015 118.252 286.195 120.074 283.945 120.074C281.7 120.074 279.88 118.252 279.88 116.003C279.88 113.757 281.7 111.934 283.945 111.934C286.195 111.934 288.015 113.757 288.015 116.003Z" fill="#164343"/>
<path d="M286.983 116.001C286.983 117.677 285.623 119.036 283.948 119.036C282.274 119.036 280.914 117.677 280.914 116.001C280.914 114.326 282.274 112.967 283.948 112.967C285.623 112.967 286.983 114.326 286.983 116.001Z" fill="#EDF9F7"/>
<path d="M158.413 151.801L153.065 149.023L158.41 151.801" fill="#FFC5BA"/>
<path d="M156.548 158.991L153.065 149.023L158.413 151.801L156.548 158.991Z" fill="#F1694B"/>
<mask id="path-55-inside-1_2338_943" fill="white">
<path d="M492.004 156.026H369.101C367.364 156.026 365.95 154.614 365.95 152.871V58.3688C365.95 56.6281 367.364 55.2159 369.101 55.2159H492.004C493.751 55.2159 495.16 56.6281 495.16 58.3688V152.871C495.16 154.614 493.751 156.026 492.004 156.026Z"/>
</mask>
<path d="M492.004 158.026H369.101V154.026H492.004V158.026ZM369.101 158.026C366.259 158.026 363.95 155.718 363.95 152.871H367.95C367.95 153.51 368.47 154.026 369.101 154.026V158.026ZM363.95 152.871V58.3688H367.95V152.871H363.95ZM363.95 58.3688C363.95 55.5231 366.26 53.2159 369.101 53.2159V57.2159C368.469 57.2159 367.95 57.7331 367.95 58.3688H363.95ZM369.101 53.2159H492.004V57.2159H369.101V53.2159ZM492.004 53.2159C494.855 53.2159 497.16 55.5231 497.16 58.3688H493.16C493.16 57.7331 492.647 57.2159 492.004 57.2159V53.2159ZM497.16 58.3688V152.871H493.16V58.3688H497.16ZM497.16 152.871C497.16 155.718 494.856 158.026 492.004 158.026V154.026C492.646 154.026 493.16 153.51 493.16 152.871H497.16Z" fill="#164343" mask="url(#path-55-inside-1_2338_943)"/>
<path d="M378.165 64.3756C376.913 64.3756 375.891 65.3972 375.891 66.655C375.891 67.9074 376.913 68.929 378.165 68.929C379.421 68.929 380.445 67.9074 380.445 66.655C380.445 65.3972 379.421 64.3756 378.165 64.3756ZM378.165 69.2739C376.722 69.2739 375.544 68.0985 375.544 66.655C375.544 65.2088 376.722 64.0307 378.165 64.0307C379.612 64.0307 380.79 65.2088 380.79 66.655C380.79 68.0985 379.612 69.2739 378.165 69.2739Z" fill="#164343" stroke="#164343"/>
<path d="M387.686 64.3756C386.431 64.3756 385.41 65.3972 385.41 66.655C385.41 67.9074 386.431 68.929 387.686 68.929C388.939 68.929 389.963 67.9074 389.963 66.655C389.963 65.3972 388.939 64.3756 387.686 64.3756ZM387.686 69.2739C386.24 69.2739 385.065 68.0985 385.065 66.655C385.065 65.2088 386.24 64.0307 387.686 64.0307C389.13 64.0307 390.308 65.2088 390.308 66.655C390.308 68.0985 389.13 69.2739 387.686 69.2739Z" fill="#164343" stroke="#164343"/>
<path d="M397.204 64.3756C395.949 64.3756 394.928 65.3972 394.928 66.655C394.928 67.9074 395.949 68.929 397.204 68.929C398.459 68.929 399.481 67.9074 399.481 66.655C399.481 65.3972 398.459 64.3756 397.204 64.3756ZM397.204 69.2739C395.758 69.2739 394.583 68.0985 394.583 66.655C394.583 65.2088 395.758 64.0307 397.204 64.0307C398.651 64.0307 399.826 65.2088 399.826 66.655C399.826 68.0985 398.651 69.2739 397.204 69.2739Z" fill="#164343" stroke="#164343"/>
<path d="M494.794 76.041H366.794V75.6951H494.794V76.041Z" fill="white" stroke="#164343"/>
<path d="M441.596 156.074C441.596 149.8 436.509 144.711 430.233 144.711C423.962 144.711 418.869 149.8 418.869 156.074C418.869 162.35 423.962 167.437 430.233 167.437C436.509 167.437 441.596 162.35 441.596 156.074Z" fill="white"/>
<path d="M437.242 156.075C437.242 152.205 434.103 149.064 430.229 149.064C426.359 149.064 423.221 152.205 423.221 156.075C423.221 159.948 426.359 163.086 430.229 163.086C434.103 163.086 437.242 159.948 437.242 156.075Z" fill="#164343"/>
<path d="M430.956 171.56H429.504V169.626H430.956V171.56ZM430.956 177.362H429.504V175.428H430.956V177.362ZM430.956 183.165H429.504V181.23H430.956V183.165ZM430.956 188.967H429.504V187.033H430.956V188.967ZM430.956 194.769H429.504V192.835H430.956V194.769ZM429.52 200.593C429.509 200.308 429.504 200.02 429.504 199.73V198.637H430.956V199.73C430.956 200.003 430.961 200.276 430.972 200.547L429.52 200.593ZM430.386 206.482C430.211 205.844 430.069 205.192 429.947 204.544L431.373 204.277C431.484 204.892 431.627 205.508 431.785 206.11L430.386 206.482ZM432.561 212.028C432.25 211.444 431.959 210.841 431.695 210.237L433.021 209.657C433.274 210.227 433.549 210.795 433.839 211.346L432.561 212.028ZM435.93 216.936C435.497 216.438 435.08 215.916 434.684 215.386L435.851 214.521C436.221 215.021 436.617 215.515 437.029 215.984L435.93 216.936ZM440.318 220.959C439.785 220.572 439.257 220.159 438.755 219.731L439.695 218.626C440.17 219.03 440.667 219.421 441.168 219.787L440.318 220.959ZM445.493 223.894C444.886 223.638 444.279 223.352 443.692 223.048L444.363 221.761C444.917 222.047 445.488 222.315 446.058 222.559L445.493 223.894ZM451.201 225.584C450.552 225.47 449.897 225.33 449.258 225.166L449.617 223.761C450.219 223.916 450.837 224.046 451.449 224.155L451.201 225.584ZM457.068 226.012C456.434 225.978 455.79 225.983 455.156 225.971L455.188 224.52C455.837 224.535 456.497 224.527 457.142 224.561L457.068 226.012ZM462.612 226.938C462.01 226.766 461.398 226.614 460.791 226.488L461.081 225.067C461.725 225.202 462.38 225.362 463.014 225.543L462.612 226.938ZM467.803 229.099C467.259 228.794 466.699 228.509 466.134 228.246L466.742 226.931C467.338 227.206 467.935 227.511 468.516 227.832L467.803 229.099ZM472.381 232.377C471.916 231.959 471.431 231.553 470.939 231.171L471.827 230.023C472.349 230.429 472.862 230.859 473.353 231.302L472.381 232.377ZM476.098 236.596C475.739 236.084 475.359 235.581 474.968 235.097L476.088 234.181C476.505 234.691 476.912 235.226 477.287 235.765L476.098 236.596ZM478.77 241.538C478.538 240.962 478.285 240.385 478.01 239.826L479.309 239.185C479.599 239.778 479.874 240.387 480.117 240.999L478.77 241.538ZM480.254 246.96C480.164 246.346 480.043 245.725 479.9 245.118L481.31 244.789C481.463 245.433 481.59 246.087 481.69 246.741L480.254 246.96ZM481.997 252.637H480.545V250.708L481.997 250.698V252.637ZM481.997 258.439H480.545V256.505H481.997V258.439ZM481.997 264.242H480.545V262.307H481.997V264.242ZM481.907 270.102L480.46 269.981C480.513 269.359 480.539 268.729 480.545 268.103L481.997 268.117C481.991 268.777 481.96 269.444 481.907 270.102ZM480.735 275.938L479.356 275.493C479.547 274.901 479.721 274.291 479.863 273.684L481.273 274.023C481.12 274.666 480.941 275.309 480.735 275.938ZM478.274 281.363L477.033 280.616C477.35 280.082 477.656 279.526 477.936 278.97L479.235 279.618C478.939 280.21 478.612 280.795 478.274 281.363ZM474.657 286.089L473.611 285.081C474.044 284.634 474.462 284.162 474.863 283.681L475.977 284.605C475.56 285.115 475.116 285.613 474.657 286.089ZM470.068 289.883L469.276 288.667C469.799 288.326 470.316 287.961 470.813 287.581L471.695 288.734C471.167 289.136 470.623 289.523 470.068 289.883ZM464.751 292.545L464.249 291.181C464.835 290.968 465.421 290.729 465.992 290.473L466.588 291.793C465.986 292.066 465.369 292.317 464.751 292.545ZM458.963 293.932L458.784 292.494C459.402 292.416 460.03 292.317 460.637 292.196L460.923 293.618C460.278 293.746 459.618 293.853 458.963 293.932ZM414.397 294.128H412.464V292.677H414.397V294.128ZM420.2 294.128H418.267V292.677H420.2V294.128ZM426.003 294.128H424.07V292.677H426.003V294.128ZM431.806 294.128H429.868V292.677H431.806V294.128ZM437.609 294.128H435.671V292.677H437.609V294.128ZM443.407 294.128H441.475V292.677H443.407V294.128ZM449.21 294.128H447.278V292.677H449.21V294.128ZM455.014 294.128H453.081V292.677H455.014V294.128Z" fill="#16A571"/>
</svg>
