<svg width="61" height="61" viewBox="0 0 61 61" fill="none" xmlns="http://www.w3.org/2000/svg">
<circle cx="30.3373" cy="30.3373" r="30.3373" fill="#D662D1"/>
<path d="M31 16C28.2311 16 25.5243 16.8211 23.222 18.3594C20.9197 19.8978 19.1253 22.0843 18.0657 24.6424C17.0061 27.2006 16.7288 30.0155 17.269 32.7313C17.8092 35.447 19.1426 37.9416 21.1005 39.8995C23.0584 41.8574 25.553 43.1908 28.2687 43.731C30.9845 44.2712 33.7994 43.9939 36.3576 42.9343C38.9157 41.8747 41.1022 40.0803 42.6406 37.778C44.1789 35.4757 45 32.7689 45 30C45 28.1615 44.6379 26.341 43.9343 24.6424C43.2307 22.9439 42.1995 21.4005 40.8995 20.1005C39.5995 18.8005 38.0561 17.7693 36.3576 17.0657C34.659 16.3621 32.8385 16 31 16ZM31 41.2C28.7849 41.2 26.6194 40.5431 24.7776 39.3125C22.9358 38.0818 21.5003 36.3326 20.6526 34.286C19.8049 32.2395 19.5831 29.9876 20.0152 27.815C20.4474 25.6424 21.5141 23.6467 23.0804 22.0804C24.6468 20.5141 26.6424 19.4474 28.815 19.0152C30.9876 18.5831 33.2395 18.8048 35.2861 19.6525C37.3326 20.5002 39.0818 21.9358 40.3125 23.7776C41.5431 25.6194 42.2 27.7848 42.2 30C42.2 32.9704 41.02 35.8192 38.9196 37.9196C36.8192 40.02 33.9704 41.2 31 41.2ZM32.4 29.902V23C32.4 22.6287 32.2525 22.2726 31.99 22.01C31.7274 21.7475 31.3713 21.6 31 21.6C30.6287 21.6 30.2726 21.7475 30.0101 22.01C29.7475 22.2726 29.6 22.6287 29.6 23V30C29.6 30 29.6 30.098 29.6 30.154C29.5656 30.4386 29.6193 30.7269 29.754 30.98L31.854 34.62C32.0397 34.943 32.346 35.1791 32.7057 35.2762C33.0654 35.3734 33.449 35.3236 33.772 35.138C34.095 34.9523 34.3311 34.646 34.4282 34.2863C34.5254 33.9266 34.4757 33.543 34.29 33.22L32.4 29.902Z" fill="white"/>
</svg>
