<svg width="24" height="24" viewBox="0 0 24 24" fill="none" xmlns="http://www.w3.org/2000/svg">
<path d="M21.2097 15.8901C20.5735 17.3946 19.5785 18.7203 18.3115 19.7514C17.0446 20.7825 15.5444 21.4875 13.9421 21.8049C12.3398 22.1222 10.6841 22.0422 9.11982 21.5719C7.55554 21.1015 6.1303 20.2551 4.96869 19.1067C3.80708 17.9583 2.94448 16.5428 2.45631 14.984C1.96813 13.4252 1.86923 11.7706 2.16827 10.1647C2.4673 8.55886 3.15517 7.05071 4.17172 5.77211C5.18827 4.49351 6.50255 3.4834 7.99967 2.83008" stroke="#16A571" stroke-width="2.3" stroke-linecap="round" stroke-linejoin="round"/>
<path d="M22 12C22 10.6868 21.7413 9.38642 21.2388 8.17317C20.7362 6.95991 19.9997 5.85752 19.0711 4.92893C18.1425 4.00035 17.0401 3.26375 15.8268 2.7612C14.6136 2.25866 13.3132 2 12 2V12H22Z" stroke="#16A571" stroke-width="2.3" stroke-linecap="round" stroke-linejoin="round"/>
</svg>
