<svg width="542" height="367" viewBox="0 0 542 367" fill="none" xmlns="http://www.w3.org/2000/svg">
<path d="M413.021 25.0186H162.116C135.282 25.0186 113.528 46.7732 113.528 73.6065V284.902H461.603V73.6065C461.603 46.7732 439.855 25.0186 413.021 25.0186Z" fill="#FCFEFF"/>
<path d="M444.377 25.0186H130.753C121.239 25.0186 113.528 32.7302 113.528 42.2441V48.1802H461.603V42.2441C461.603 32.7302 453.891 25.0186 444.377 25.0186Z" fill="#4f76a8"/>
<path d="M462.078 284.902H461.127V42.2437C461.127 33.0112 453.616 25.4939 444.377 25.4939H130.753C121.521 25.4939 114.003 33.0045 114.003 42.2437V284.902H113.052V42.2437C113.052 32.4819 120.991 24.5425 130.753 24.5425H444.377C454.139 24.5425 462.078 32.4819 462.078 42.2437V284.902Z" fill="#1f3667"/>
<path d="M113.535 47.6985L113.531 48.6499L372.457 49.6048L372.461 48.6534L113.535 47.6985Z" fill="#1f3667"/>
<path d="M129.322 34.6206C128.107 34.6206 127.116 35.612 127.116 36.8269C127.116 38.0455 128.107 39.0368 129.322 39.0368C130.541 39.0368 131.528 38.0455 131.528 36.8269C131.528 35.612 130.541 34.6206 129.322 34.6206ZM129.322 39.5176C127.839 39.5176 126.631 38.3101 126.631 36.8269C126.631 35.3436 127.839 34.1362 129.322 34.1362C130.805 34.1362 132.013 35.3436 132.013 36.8269C132.013 38.3101 130.805 39.5176 129.322 39.5176Z" fill="#ffbf00" stroke="#1f3667"/>
<path d="M138.838 34.6188C137.623 34.6188 136.632 35.6105 136.632 36.8293C136.632 38.0443 137.623 39.036 138.838 39.036C140.057 39.036 141.045 38.0443 141.045 36.8293C141.045 35.6105 140.057 34.6188 138.838 34.6188ZM138.838 39.5205C137.358 39.5205 136.147 38.313 136.147 36.8293C136.147 35.3455 137.358 34.1381 138.838 34.1381C140.322 34.1381 141.53 35.3455 141.53 36.8293C141.53 38.313 140.322 39.5205 138.838 39.5205Z" fill="#ffbf00" stroke="#1f3667"/>
<path d="M148.36 34.6229C147.141 34.6229 146.154 35.6107 146.154 36.8291C146.154 38.0475 147.141 39.0353 148.36 39.0353C149.574 39.0353 150.566 38.0475 150.566 36.8291C150.566 35.6107 149.574 34.6229 148.36 34.6229ZM148.36 39.5195C146.876 39.5195 145.669 38.3127 145.669 36.8291C145.669 35.3455 146.876 34.1386 148.36 34.1386C149.84 34.1386 151.05 35.3455 151.05 36.8291C151.05 38.3127 149.84 39.5195 148.36 39.5195Z" fill="#16A571" stroke="#1f3667"/>
<path d="M462.045 79.9625H383.412C377.257 79.9625 372.27 74.9829 372.27 68.8378V11.7663C372.27 7.10448 376.055 3.34326 380.706 3.34326H462.045C466.714 3.34326 470.482 7.12213 470.482 11.7663V71.5219C470.499 76.1837 466.714 79.9625 462.045 79.9625Z" fill="#FF5D53"/>
<rect x="370.27" y="0.343262" width="103" height="81" rx="3" fill="#1f3667"/>
<path d="M436.123 28.085L433.389 27.5434C433.311 27.5323 433.234 27.4549 433.211 27.3665L432.669 24.6361C432.603 24.3156 432.37 24.2493 432.138 24.4814L428.196 28.4166C428.085 28.5272 428.019 28.7482 428.041 28.9141V28.9141C428.283 30.1351 427.894 31.3959 427.005 32.268L419.073 40.0565C418.675 40.4544 418.675 41.1066 419.073 41.5046C419.472 41.9025 420.125 41.9025 420.523 41.5046L428.454 33.7182C429.346 32.8424 430.612 32.4635 431.839 32.7056V32.7056C431.994 32.7387 432.215 32.6724 432.337 32.5508L436.278 28.6156C436.511 28.3835 436.444 28.1513 436.123 28.085Z" fill="white"/>
<path d="M422.981 34.7727L424.697 33.0594C424.764 32.993 424.753 32.9046 424.675 32.8604C423.214 31.9982 421.575 31.5781 419.937 31.5781C417.545 31.5781 415.143 32.4956 413.316 34.3195C409.662 37.9673 409.662 43.8923 413.316 47.5401C415.143 49.364 417.545 50.2815 419.937 50.2815C422.328 50.2815 424.731 49.364 426.557 47.5401C429.635 44.4671 430.122 39.7802 428.008 36.1987C427.964 36.1213 427.875 36.1103 427.809 36.1766L426.092 37.89C426.026 37.9563 426.004 38.0668 426.048 38.1553C426.447 39.0175 426.657 39.9571 426.657 40.9298C426.657 42.7206 425.96 44.4008 424.686 45.672C423.413 46.9432 421.73 47.6396 419.937 47.6396C418.143 47.6396 416.46 46.9432 415.187 45.672C412.563 43.0522 412.563 38.8075 415.187 36.1877C416.46 34.9164 418.143 34.22 419.937 34.22C420.911 34.22 421.852 34.4301 422.716 34.828C422.793 34.8612 422.915 34.8391 422.981 34.7727Z" fill="white"/>
<path d="M432.769 34.1866L431.019 35.9332C430.953 35.9995 430.931 36.11 430.975 36.1985C431.606 37.6687 431.938 39.2715 431.938 40.9185C431.938 44.1242 430.687 47.1309 428.418 49.397C426.148 51.6631 423.136 52.9122 419.926 52.9122C416.715 52.9122 413.703 51.6631 411.434 49.397C406.751 44.7211 406.751 37.116 411.434 32.4401C413.703 30.174 416.715 28.9249 419.926 28.9249C421.575 28.9249 423.181 29.2566 424.653 29.8866C424.731 29.9198 424.853 29.8977 424.919 29.8314L426.668 28.0848C426.735 28.0185 426.724 27.9411 426.635 27.8969C424.531 26.8136 422.229 26.272 419.926 26.272C416.172 26.272 412.43 27.6979 409.563 30.5609C403.839 36.2759 403.839 45.5391 409.563 51.2541C412.419 54.106 416.172 55.543 419.926 55.543C423.679 55.543 427.421 54.117 430.289 51.2541C434.905 46.6445 435.802 39.7137 432.957 34.2088C432.924 34.1424 432.835 34.1314 432.769 34.1866Z" fill="white"/>
<path d="M462.842 344.812L462.775 349.047L465.187 353.033L454.822 358.353L447.151 355.03L448.002 350.152L450.085 347.472L449.462 342.715L462.842 344.812Z" fill="#FFD4CA"/>
<path d="M465.026 350.796L466.038 354.615L466.393 356.431C466.5 357.389 466.701 358.327 467.01 359.238C467.445 360.517 467.968 362.534 467.331 363.385C466.36 364.678 462.909 368.457 449.844 365.114C449.844 365.114 438.863 367.485 438.689 358.42V356.819C438.689 355.553 440.773 355.633 442.28 355.285C442.816 355.164 443.299 354.863 443.64 354.427L447.995 350.146C448.149 349.999 448.404 350.032 448.504 350.22C449.329 351.767 452.611 357.208 455.405 351.714C455.58 351.379 456.685 349.516 456.685 349.516L461.656 348.638C463.171 348.384 464.638 349.315 465.026 350.796Z" fill="#101010"/>
<path d="M439.922 360.98C439.553 360.738 439.218 360.491 438.903 360.243C440.438 367.144 449.851 365.107 449.851 365.107C462.909 368.45 466.366 364.678 467.338 363.378C467.974 362.534 467.458 360.544 467.023 359.258C466.889 358.862 466.775 358.46 466.681 358.052C463.539 360.223 458.507 362.956 451.714 361.569C451.714 361.569 444.779 364.196 439.922 360.98Z" fill="#101010"/>
<path d="M465.187 353.034C464.926 352.243 464.303 351.466 463.472 351.426C462.695 351.385 462.011 352.022 461.71 352.739C461.408 353.456 461.382 354.26 461.288 355.037C460.966 357.623 459.787 360.102 457.978 361.978L459.995 362.092C460.618 363.425 462.246 363.914 463.706 364.095C464.149 364.149 464.611 364.189 465.04 364.062C465.75 363.854 466.259 363.258 466.728 362.682C467.036 362.3 467.351 361.904 467.592 361.476C467.485 360.705 467.244 359.874 467.03 359.231C466.762 358.44 466.581 357.623 466.46 356.792C466.185 356.363 465.938 355.921 465.77 355.459C465.475 354.682 465.448 353.824 465.187 353.034Z" fill="#101010"/>
<path d="M446.494 358.079C446.514 358.052 446.508 358.065 446.481 358.119C446.474 358.152 446.474 358.179 446.467 358.213C446.467 358.273 446.488 358.333 446.508 358.387C446.535 358.487 446.588 358.601 446.622 358.682C446.709 358.889 446.782 359.07 446.849 359.264C446.997 359.666 447.07 360.089 447.158 360.504C447.191 360.665 447.372 360.772 447.526 360.745C447.694 360.718 447.814 360.584 447.821 360.41C447.834 359.941 447.714 359.479 447.546 359.043C447.459 358.822 447.365 358.615 447.225 358.414C447.151 358.306 447.084 358.199 446.983 358.112C446.936 358.072 446.896 358.025 446.843 357.998C446.816 357.985 446.782 357.971 446.756 357.958C446.736 357.951 446.682 357.958 446.675 357.951C446.602 357.931 446.488 357.971 446.494 358.079Z" fill="#101010"/>
<path d="M448.953 356.444C449.188 356.725 449.389 357.04 449.59 357.341C449.797 357.656 449.972 357.985 450.112 358.333C450.246 358.681 450.353 359.043 450.42 359.412C450.494 359.794 450.494 360.169 450.588 360.544C450.668 360.866 451.131 360.845 451.218 360.544C451.345 360.115 451.285 359.7 451.211 359.264C451.137 358.849 451.023 358.447 450.863 358.052C450.702 357.663 450.508 357.288 450.273 356.933C450.025 356.564 449.73 356.276 449.389 356.001C449.08 355.753 448.699 356.129 448.953 356.444Z" fill="#101010"/>
<path d="M481.81 344.812L481.877 349.047L479.465 353.033L489.829 358.353L497.501 355.03L496.657 350.152L494.566 347.472L495.779 342.715L481.81 344.812Z" fill="#FFD4CA"/>
<path d="M479.626 350.796L478.614 354.615L478.259 356.431C478.152 357.389 477.951 358.327 477.642 359.238C477.207 360.517 476.684 362.534 477.321 363.385C478.292 364.678 481.743 368.457 494.808 365.114C494.808 365.114 505.789 367.485 505.963 358.42V356.819C505.963 355.553 503.879 355.633 502.372 355.285C501.836 355.164 501.353 354.863 501.012 354.427L496.657 350.146C496.503 349.999 496.248 350.032 496.148 350.22C495.323 351.767 492.04 357.208 489.247 351.714C489.072 351.379 487.967 349.516 487.967 349.516L482.996 348.638C481.481 348.384 480.014 349.315 479.626 350.796Z" fill="#101010"/>
<path d="M504.73 360.98C505.099 360.738 505.434 360.491 505.749 360.243C504.214 367.144 494.801 365.107 494.801 365.107C481.743 368.45 478.286 364.678 477.314 363.378C476.678 362.534 477.194 360.544 477.629 359.258C477.763 358.862 477.877 358.46 477.971 358.052C481.113 360.223 486.145 362.956 492.938 361.569C492.938 361.569 499.873 364.196 504.73 360.98Z" fill="#101010"/>
<path d="M489.193 284.902C494.747 284.902 499.25 280.399 499.25 274.845C499.25 269.291 494.747 264.789 489.193 264.789C483.639 264.789 479.136 269.291 479.136 274.845C479.136 280.399 483.639 284.902 489.193 284.902Z" fill="#FFD4CA"/>
<path d="M489.343 228.132C498.922 225.871 504.854 216.272 502.592 206.693C500.33 197.114 490.732 191.182 481.153 193.444C471.574 195.706 465.642 205.305 467.904 214.884C470.166 224.463 479.765 230.394 489.343 228.132Z" fill="#FFD4CA"/>
<path d="M503.115 210.861L499.25 274.845H479.136L470.279 201.26L503.115 210.861Z" fill="#FFD4CA"/>
<path d="M499.25 274.845L500.409 292.131C500.998 300.908 500.657 309.725 499.39 318.428L495.571 344.699C495.571 344.699 487.565 350.367 481.562 344.699L479.143 291.32V274.845H499.25Z" fill="#FFD4CA"/>
<path d="M467.472 210.861C467.472 207.323 468.504 204.034 470.279 201.267V201.26H470.286C473.455 196.322 478.989 193.039 485.294 193.039C495.136 193.039 503.115 201.019 503.115 210.861C503.115 211.571 503.069 212.268 502.988 212.951L499.25 274.839L500.409 292.124C500.998 300.901 500.657 309.718 499.39 318.422L495.571 344.692C495.571 344.692 487.565 350.36 481.562 344.692L479.143 291.314V274.839L472.993 223.738C469.589 220.502 467.472 215.933 467.472 210.861Z" fill="#164343"/>
<path d="M471.714 223.469C478.674 216.509 478.674 205.225 471.714 198.265C464.754 191.306 453.47 191.306 446.51 198.265C439.55 205.225 439.55 216.509 446.51 223.469C453.47 230.429 464.754 230.429 471.714 223.469Z" fill="#FFD4CA"/>
<path d="M454.387 283.213C459.941 283.213 464.443 278.711 464.443 273.157C464.443 267.603 459.941 263.1 454.387 263.1C448.833 263.1 444.33 267.603 444.33 273.157C444.33 278.711 448.833 283.213 454.387 283.213Z" fill="#FFD4CA"/>
<path d="M464.403 274.048L474.145 208.811H441.302L444.33 273.157L464.403 274.048Z" fill="#FFD4CA"/>
<path d="M464.403 274.048L465.824 294.329C466.085 298.027 466.051 301.739 465.737 305.437L462.655 344.705C462.655 344.705 456.759 350.152 449.201 344.705C449.201 344.705 447.627 303.159 444.826 289.518C444.498 287.91 444.337 286.282 444.337 284.64V273.157L464.403 274.048Z" fill="#FFD4CA"/>
<path d="M441.342 209.702L441.302 208.811H441.422C442.441 199.933 449.972 193.039 459.124 193.039C468.966 193.039 476.945 201.019 476.945 210.861C476.945 215.638 476.631 222.834 473.569 226.03L464.403 274.041L465.824 294.322C466.085 298.02 466.051 301.732 465.736 305.43L463.351 344.88C463.351 344.88 456.759 350.146 449.201 344.699C449.201 344.699 447.627 303.152 444.826 289.511C444.498 287.903 444.337 286.275 444.337 284.634V273.157L441.543 213.722C441.396 212.79 441.315 211.839 441.315 210.861C441.302 210.472 441.322 210.084 441.342 209.702Z" fill="#164343"/>
<path d="M479.465 353.034C479.726 352.243 480.349 351.466 481.18 351.426C481.957 351.385 482.641 352.022 482.942 352.739C483.244 353.456 483.27 354.26 483.364 355.037C483.686 357.623 484.865 360.102 486.674 361.978L484.657 362.092C484.034 363.425 482.406 363.914 480.945 364.095C480.503 364.149 480.041 364.189 479.612 364.062C478.902 363.854 478.393 363.258 477.924 362.682C477.615 362.3 477.301 361.904 477.059 361.476C477.167 360.705 477.408 359.874 477.622 359.231C477.89 358.44 478.071 357.623 478.192 356.792C478.466 356.363 478.714 355.921 478.882 355.459C479.177 354.682 479.203 353.824 479.465 353.034Z" fill="#101010"/>
<path d="M498.158 358.079C498.137 358.052 498.144 358.065 498.171 358.119C498.178 358.152 498.178 358.179 498.184 358.213C498.184 358.273 498.164 358.333 498.144 358.387C498.117 358.487 498.064 358.601 498.03 358.682C497.943 358.889 497.869 359.07 497.802 359.264C497.655 359.666 497.581 360.089 497.494 360.504C497.461 360.665 497.28 360.772 497.126 360.745C496.958 360.718 496.838 360.584 496.831 360.41C496.818 359.941 496.938 359.479 497.106 359.043C497.193 358.822 497.293 358.615 497.427 358.414C497.501 358.306 497.568 358.199 497.668 358.112C497.715 358.072 497.756 358.025 497.809 357.998C497.836 357.985 497.869 357.971 497.896 357.958C497.916 357.951 497.97 357.958 497.977 357.951C498.05 357.931 498.164 357.971 498.158 358.079Z" fill="#101010"/>
<path d="M495.699 356.444C495.464 356.725 495.263 357.04 495.062 357.341C494.854 357.656 494.68 357.985 494.54 358.333C494.406 358.681 494.298 359.043 494.231 359.412C494.158 359.794 494.158 360.169 494.064 360.544C493.983 360.866 493.521 360.845 493.434 360.544C493.307 360.115 493.367 359.7 493.441 359.264C493.514 358.849 493.628 358.447 493.789 358.052C493.95 357.663 494.144 357.288 494.379 356.933C494.627 356.564 494.921 356.276 495.263 356.001C495.571 355.753 495.953 356.129 495.699 356.444Z" fill="#101010"/>
<path d="M505.909 192.855C508.167 192.322 509.565 190.059 509.032 187.801C508.499 185.543 506.236 184.145 503.978 184.678C501.721 185.211 500.322 187.474 500.855 189.732C501.389 191.99 503.651 193.388 505.909 192.855Z" fill="#FFD4CA"/>
<path d="M532.515 170.253C536.844 170.253 540.354 166.743 540.354 162.414C540.354 158.084 536.844 154.575 532.515 154.575C528.185 154.575 524.676 158.084 524.676 162.414C524.676 166.743 528.185 170.253 532.515 170.253Z" fill="#FFD4CA"/>
<path d="M511.754 125.098C512.131 119.308 507.743 114.308 501.953 113.931C496.164 113.554 491.164 117.942 490.787 123.732C490.41 129.522 494.798 134.521 500.588 134.898C506.377 135.275 511.377 130.888 511.754 125.098Z" fill="#FFD4CA"/>
<path d="M510.371 119.146L538.565 157.221L525.024 165.12L494.734 132.646L510.371 119.146Z" fill="#FFD4CA"/>
<path d="M537.654 168.33L508.221 191.659L501.615 186.339L527.376 156.498L537.654 168.33Z" fill="#FFD4CA"/>
<path d="M500.79 188.517L499.564 195.384L499.31 199.283C499.176 201.327 499.866 203.337 501.219 204.871L505.152 209.327C505.521 209.742 506.05 209.983 506.613 209.983H507.906L511.678 212.161C511.959 212.328 512.328 212.174 512.408 211.852L512.515 211.424C512.79 210.352 512.582 209.213 511.939 208.308L508.489 203.478L508.569 199.558L510.157 200.141L511.296 203.015C511.886 204.496 513.199 205.555 514.767 205.816H514.773V198.386C514.773 196.342 514.056 194.366 512.75 192.791L509.192 188.517H500.79V188.517Z" fill="#FFD4CA"/>
<path d="M481.501 98.061L481.247 109.438L459.767 108.607V99.3206L481.501 98.061Z" fill="#FFD4CA"/>
<path d="M452.886 85.1569C452.296 82.8856 453.67 80.5607 455.941 79.9711C458.212 79.3815 460.537 80.755 461.127 83.0263C461.717 85.2976 460.343 87.6225 458.072 88.2121C455.8 88.8017 453.476 87.4282 452.886 85.1569ZM453.523 84.9961C454.018 86.919 455.988 88.0781 457.911 87.5823C459.834 87.0865 460.993 85.1167 460.497 83.1938C460.001 81.2709 458.032 80.1118 456.109 80.6076C454.186 81.1034 453.027 83.0732 453.523 84.9961Z" fill="#101010"/>
<path d="M461.227 71.4889L458.246 80.2457C457.703 80.8889 457.469 81.7398 457.609 82.5773L457.77 83.4951C457.877 84.1048 457.73 84.7279 457.375 85.2304C456.625 86.289 455.365 90.2152 455.754 91.7629C456.055 92.9688 455.62 95.6287 455.68 98.771C455.733 101.411 458.655 102.59 461.288 102.382L476.517 101.176L484.081 92.3926C484.074 92.3792 492.255 65.814 461.227 71.4889Z" fill="#FFD4CA"/>
<path d="M455.747 91.7563C455.358 90.2087 456.618 86.2892 457.368 85.2239C457.723 84.7214 457.864 84.0983 457.764 83.4886L457.603 82.5707C457.462 81.7399 457.69 80.889 458.239 80.2392L461.221 71.4823C461.415 71.4488 461.609 71.4153 461.804 71.3818C461.261 73.8876 460.578 76.313 459.74 78.6111C459.445 79.415 459.13 80.2324 459.057 81.1503C458.856 83.6159 460.417 86.2289 459.599 88.3528C459.452 88.7347 459.238 89.0429 459.057 89.3913C457.348 92.6742 458.936 97.7126 458.266 101.833C458.259 101.88 458.246 101.927 458.239 101.974C456.792 101.431 455.693 100.372 455.66 98.7578C455.613 95.6222 456.048 92.9556 455.747 91.7563Z" fill="#FFD4CA"/>
<path d="M475.284 98.7912C470.48 96.6606 469.83 92.3124 469.073 86.8586C468.919 85.7665 468.591 84.4332 467.525 84.1585C466.721 83.9508 465.904 84.5069 465.448 85.197C464.993 85.8871 464.792 86.7112 464.43 87.4549C464.296 87.7296 464.102 88.0311 463.793 88.0713C463.164 88.1584 463.003 87.2271 463.077 86.5973C463.459 83.321 464.678 79.1738 462.581 76.266C461.181 74.3297 459.512 73.1237 458.4 70.9396C457.268 68.7152 456.45 66.2697 456.584 63.7371C456.779 60.1125 459.519 56.4275 463.15 56.3203C463.907 56.3002 464.678 56.4342 465.341 56.7893C466.065 57.1779 466.628 57.8077 467.15 58.4442C468.524 60.0991 469.823 61.9215 471.726 62.9264C473.461 63.8443 475.498 63.9716 477.461 64.0252C479.424 64.0788 481.441 64.0989 483.264 64.8292C485.086 65.5662 486.687 67.2144 486.727 69.1775C488.443 69.3048 489.937 70.5644 490.687 72.1121C492.496 75.8506 491.022 81.8537 489.682 85.5521C488.108 89.8937 485.608 93.8332 483.116 97.6924C482.694 98.3423 482.259 99.0123 481.602 99.4277C480.383 100.198 478.795 99.8632 477.401 99.5081C476.611 99.3071 475.914 99.0659 475.284 98.7912Z" fill="#101010"/>
<path d="M463.512 83.6089L463.599 82.959L453.107 83.2605L453.121 83.9171L463.512 83.6089Z" fill="#101010"/>
<path d="M472.658 85.8334C473.334 87.8836 472.222 90.1013 470.165 90.7779C468.115 91.4546 465.897 90.3424 465.221 88.2856C464.544 86.2354 465.656 84.0177 467.713 83.341C469.77 82.6643 471.981 83.7832 472.658 85.8334Z" fill="#FFD4CA"/>
<path d="M486.473 111.461C486.473 111.461 483.532 103.226 474.085 101.886C469.669 101.263 465.187 102.436 461.556 105.022L455.278 109.484L486.473 111.461Z" fill="#ffbf00"/>
<path d="M437.945 128.184C443.747 128.184 448.451 123.48 448.451 117.678C448.451 111.876 443.747 107.173 437.945 107.173C432.143 107.173 427.44 111.876 427.44 117.678C427.44 123.48 432.143 128.184 437.945 128.184Z" fill="#FFD4CA"/>
<path d="M406.191 124.079C410.426 123.179 413.129 119.017 412.229 114.782C411.329 110.547 407.166 107.843 402.931 108.743C398.696 109.643 395.993 113.806 396.893 118.041C397.793 122.276 401.956 124.979 406.191 124.079Z" fill="#FFD4CA"/>
<path d="M409.462 90.2188C409.68 87.909 407.984 85.8599 405.675 85.6421C403.365 85.4242 401.316 87.1201 401.098 89.4299C400.88 91.7398 402.576 93.7889 404.886 94.0068C407.195 94.2246 409.245 92.5287 409.462 90.2188Z" fill="#FFD4CA"/>
<path d="M435.279 107.495C431.132 110.168 426.308 111.595 421.376 111.608L410.677 111.635L405.223 124.291L441.235 126.194L435.279 107.495Z" fill="#FFD4CA"/>
<path d="M410.677 111.636C410.516 111.435 409.424 89.834 409.424 89.834H401.022L396.707 115.682L410.677 111.636Z" fill="#FFD4CA"/>
<path d="M409.424 89.8336L410.998 87.7097L414.395 86.028C416.104 85.1839 417.397 83.6898 417.986 81.8808L419.842 76.1993C419.896 76.0385 419.775 75.8643 419.601 75.8643H419.206C418.12 75.8643 417.122 76.4471 416.593 77.3985L414.81 80.5944L413.839 63.1478C413.806 62.5783 413.336 62.1294 412.767 62.1294C412.184 62.1294 411.708 62.5917 411.688 63.1679L411.394 71.7505L410.69 70.6651C410.435 70.2698 409.993 70.0353 409.524 70.0487L405.096 70.176C404.72 70.1894 404.365 70.3569 404.117 70.645L404.044 70.7321C403.816 71.0001 403.508 71.181 403.166 71.248L402.737 71.3351C401.719 71.5495 400.962 72.4004 400.861 73.4322L400.272 79.8038C400.017 82.5776 400.151 85.3648 400.687 88.0983L401.022 89.8269H409.424V89.8336Z" fill="#FFD4CA"/>
<path d="M504.991 114.596L486.64 108.606C485.749 108.318 484.912 107.869 484.175 107.3L483.565 106.824C483.203 106.543 482.761 106.382 482.299 106.369L441.784 107.012L444.33 163.7L441.422 208.811C441.422 208.811 478.768 220.978 503.115 209.058L499.142 176.832C498.76 172.216 498.841 167.573 499.377 162.97L504.991 114.596Z" fill="#FFD4CA"/>
<path d="M444.33 163.7L435.037 138.743C434.83 137.671 434.066 136.793 433.034 136.445L401.203 125.665C396.794 124.251 394.108 119.802 394.918 115.239L398.355 95.8633L410.683 96.8415L412.345 110.797L437.952 107.153L441.791 106.999L450.97 130.482L444.33 163.7Z" fill="#FFD4CA"/>
<path d="M538.873 154.937L511.919 118.254C511.035 117.055 509.795 116.157 508.375 115.695L504.221 114.348L486.647 108.613C485.756 108.325 484.918 107.876 484.181 107.307L483.572 106.831C483.21 106.55 482.768 106.389 482.305 106.375L441.791 107.019L437.952 107.173L412.345 110.817L410.683 96.8615L398.355 95.8833L394.918 115.26C394.108 119.815 396.794 124.271 401.203 125.685L433.034 136.465C434.066 136.813 434.83 137.691 435.037 138.763L444.33 163.72L441.422 208.831C441.422 208.831 478.768 220.998 503.115 209.079L499.142 176.852C498.76 172.236 498.841 167.593 499.377 162.99L501.615 143.694L519.631 160.826L507.276 178.594L515.832 186.989L536.675 170.36C541.446 166.635 542.417 159.821 538.873 154.937Z" fill="#ffbf00"/>
<path d="M515.832 186.962L510.465 189.937L503.638 184.001L507.276 178.574L515.832 186.962Z" fill="#164343"/>
<path d="M514.17 186.373C514.07 186.527 513.923 186.6 513.762 186.694C513.621 186.775 513.48 186.862 513.346 186.942C513.072 187.11 512.784 187.264 512.502 187.431C512.221 187.599 511.946 187.759 511.665 187.927C511.397 188.088 511.122 188.309 510.807 188.369C510.626 188.403 510.459 188.222 510.559 188.048C510.727 187.766 511.028 187.592 511.289 187.404C511.564 187.21 511.839 187.022 512.12 186.842C512.395 186.667 512.67 186.493 512.951 186.339C513.092 186.265 513.239 186.185 513.38 186.111C513.547 186.024 513.708 185.917 513.902 185.924C514.13 185.93 514.291 186.178 514.17 186.373Z" fill="#005368"/>
<path d="M512.1 184.758C512.006 184.832 511.939 184.932 511.845 185.006C511.745 185.079 511.651 185.16 511.544 185.227C511.356 185.354 511.169 185.488 510.988 185.636C510.599 185.944 510.217 186.265 509.829 186.567C509.634 186.721 509.353 187.002 509.092 186.835C508.951 186.748 508.931 186.553 509.011 186.419C509.085 186.292 509.226 186.218 509.34 186.131C509.722 185.85 510.083 185.535 510.465 185.24C510.686 185.073 510.907 184.912 511.142 184.765C511.269 184.684 511.397 184.617 511.537 184.564C511.671 184.51 511.799 184.503 511.939 184.476C512.087 184.443 512.241 184.637 512.1 184.758Z" fill="#005368"/>
<path d="M510.418 182.875C510.358 183.036 510.291 183.157 510.157 183.271C510.03 183.378 509.903 183.478 509.775 183.586C509.521 183.8 509.279 184.021 509.032 184.242C508.79 184.457 508.549 184.671 508.321 184.899C508.073 185.14 507.846 185.428 507.564 185.622C507.29 185.81 506.968 185.448 507.122 185.18C507.29 184.892 507.578 184.658 507.819 184.43C508.06 184.195 508.315 183.968 508.569 183.74C508.824 183.519 509.105 183.311 509.38 183.117C509.514 183.023 509.648 182.922 509.782 182.829C509.936 182.728 510.083 182.688 510.271 182.681C510.358 182.681 510.452 182.782 510.418 182.875Z" fill="#005368"/>
<path d="M508.288 181.22C508.194 181.368 508.147 181.522 508.02 181.649C507.913 181.75 507.812 181.857 507.712 181.964C507.497 182.199 507.27 182.42 507.035 182.641C506.807 182.855 506.606 183.096 506.405 183.331C506.198 183.572 505.983 183.867 505.675 183.967C505.534 184.014 505.394 183.867 505.434 183.726C505.521 183.418 505.802 183.17 505.997 182.922C506.191 182.681 506.378 182.433 506.546 182.178C506.727 181.904 506.928 181.643 507.169 181.421C507.29 181.314 507.41 181.207 507.538 181.107C507.698 180.979 507.866 180.966 508.053 180.912C508.221 180.865 508.388 181.066 508.288 181.22Z" fill="#005368"/>
<path d="M410.677 96.8483L409.424 89.8335H401.022L398.349 95.8701L410.677 96.8483Z" fill="#ffbf00"/>
<g opacity="0.15">
<path opacity="0.15" d="M516.549 186.272C517.594 180.912 522.324 177.181 526.733 173.951C525.393 173.623 524.046 173.295 522.706 172.966C523.209 170.735 525.614 169.596 527.664 168.578C529.815 167.513 531.952 166.159 533.171 164.096C534.391 162.025 534.404 159.077 532.635 157.456C532.126 156.987 531.47 156.618 531.215 155.975C530.92 155.252 531.228 154.441 531.423 153.684C532.367 149.945 530.351 146.026 527.617 143.312C524.877 140.599 521.44 138.71 518.485 136.237C514.15 132.606 510.961 127.822 507.779 123.146C506.217 120.854 504.623 118.536 502.499 116.754C499.477 114.221 495.632 112.955 492.168 111.079C491.39 110.657 490.62 110.188 489.89 109.659L504.234 114.342L508.388 115.689C509.809 116.151 511.048 117.042 511.932 118.248L538.886 154.93C542.437 159.814 541.466 166.635 536.689 170.333L516.535 186.413C516.535 186.366 516.542 186.319 516.549 186.272Z" fill="white"/>
</g>
<g opacity="0.5">
<path opacity="0.5" d="M513.279 172.149C511.973 173.455 510.626 174.782 509.145 175.887L519.631 160.806L501.682 143.741C501.722 143.594 501.769 143.446 501.809 143.306C508.268 148.96 515.658 153.557 523.584 156.853C523.778 158.193 523.001 159.613 521.761 160.169C522.72 160.384 523.678 160.605 524.636 160.819C520.85 164.598 517.065 168.37 513.279 172.149Z" fill="#164343"/>
</g>
<g opacity="0.5">
<path opacity="0.5" d="M487.002 281.05C487.464 282.075 487.752 283.133 487.739 284.252C487.123 284.614 486.325 284.212 485.83 283.696C485.334 283.18 484.932 282.524 484.275 282.242C481.12 280.869 483.826 289.78 484.014 290.912C484.657 294.751 485.059 298.63 485.039 302.523C485.032 304.205 484.825 306.221 483.331 306.985C483.042 306.201 480.778 298.068 479.625 302.409C479.538 298.717 479.136 295.019 479.136 291.327V274.852L477.756 263.389C479.264 267.134 480.959 270.799 482.835 274.37C483.987 276.547 485.943 278.691 487.002 281.05Z" fill="#346464"/>
</g>
<g opacity="0.1">
<path opacity="0.1" d="M493.635 330.903C494.499 325.698 495.357 320.485 496.221 315.279C496.288 314.864 496.362 314.448 496.429 314.026C497.059 310.228 497.689 306.422 498.318 302.623C498.895 299.146 499.471 295.642 499.37 292.124C499.276 288.955 498.64 285.826 498.231 282.677C497.307 275.555 497.561 268.279 498.982 261.238C497.689 261.874 496.395 262.511 495.102 263.154C499.082 255.663 497.668 246.598 498.653 238.176C499.042 234.833 499.826 231.55 500.67 228.294C501.24 226.09 501.843 223.892 502.479 221.708L499.27 274.852L500.429 292.138C501.018 300.915 500.677 309.732 499.41 318.435L495.591 344.705C495.591 344.705 495.196 344.987 494.513 345.362C494.506 345.268 494.493 345.174 494.486 345.081C493.963 339.654 494.506 334.119 496.074 328.894C495.069 329.296 494.211 330.012 493.635 330.903Z" fill="white"/>
</g>
<path d="M414.147 79.4884C414.047 78.1015 413.953 76.7146 413.852 75.3344C413.812 74.7314 413.765 74.1351 413.732 73.5321C413.524 70.0146 413.551 66.4771 413.805 62.9663C413.819 63.0266 413.832 63.0936 413.832 63.1606L414.703 78.7781C414.569 79.0461 414.395 79.2941 414.147 79.4884Z" fill="#D3867A"/>
<path d="M417.986 81.8801C417.397 83.6891 416.103 85.1832 414.395 86.0273L411.507 87.4611C412.144 86.1346 413.142 84.9755 414.375 84.1648C415.005 83.7494 415.701 83.4144 416.244 82.8918C416.767 82.3893 417.115 81.7461 417.464 81.1163C418.093 79.9639 418.73 78.7914 418.984 77.505C419.085 76.9891 419.152 76.4263 419.252 75.877H419.608C419.782 75.877 419.902 76.0445 419.849 76.2119L417.986 81.8801Z" fill="#D3867A"/>
<path d="M487.444 73.7804C487.672 75.9444 487.438 78.1755 487.009 80.2994C486.587 82.43 485.883 84.5538 484.805 86.4499C484.188 87.5286 483.538 88.5805 482.795 89.5788C482.748 89.6391 482.647 89.5855 482.694 89.5185C483.913 87.7162 484.838 85.7531 485.582 83.7097C486.325 81.6729 486.848 79.5557 487.062 77.3983C487.183 76.1923 487.196 74.9863 487.19 73.7804C487.19 73.6129 487.424 73.6196 487.444 73.7804Z" fill="#414042"/>
<path d="M489.334 79.6362C488.958 82.0347 488.221 84.3596 487.263 86.584C486.305 88.8017 485.086 90.9055 483.639 92.835C483.237 93.371 482.815 93.8869 482.372 94.3894C481.923 94.9053 481.468 95.4279 480.925 95.85C480.831 95.9237 480.717 95.8098 480.791 95.716C481.166 95.247 481.588 94.8249 481.984 94.3827C482.379 93.9338 482.761 93.4782 483.129 93.0092C483.887 92.0646 484.59 91.073 485.22 90.0412C486.473 87.9977 487.511 85.7867 488.195 83.4886C488.577 82.2089 488.891 80.8958 489.133 79.5759C489.159 79.4486 489.354 79.5089 489.334 79.6362Z" fill="#414042"/>
<path d="M461.047 58.1157C459.975 59.2412 459.144 60.5812 458.681 62.0686C458.219 63.5627 458.159 65.1372 458.413 66.6715C458.42 66.7117 458.36 66.7318 458.346 66.6916C457.563 63.6833 458.635 60.1055 460.959 58.0353C461.02 57.9817 461.1 58.0621 461.047 58.1157Z" fill="#414042"/>
<path d="M462.876 59.9316C462.145 60.8093 461.536 61.7674 461.16 62.8528C460.792 63.9248 460.631 65.0571 460.658 66.1894C460.712 68.5946 461.65 70.8793 462.969 72.8692C463.753 74.0484 464.698 75.0936 465.576 76.1924C465.656 76.2929 465.536 76.4269 465.428 76.3398C464.457 75.4956 463.639 74.4839 462.909 73.4253C462.179 72.3734 461.562 71.2545 461.1 70.0552C460.249 67.8375 460.048 65.3586 460.765 63.0806C461.147 61.8612 461.797 60.6686 462.789 59.8445C462.849 59.8043 462.923 59.878 462.876 59.9316Z" fill="#414042"/>
<path d="M463.09 56.9432C461.301 56.7221 459.519 57.3452 458.172 58.511C456.732 59.7639 455.867 61.4925 455.68 63.3885C455.479 65.4253 455.981 67.4956 456.926 69.2912C457.851 71.0399 459.157 72.5406 460.464 74.0079C461.187 74.8186 461.911 75.6293 462.588 76.4802C463.258 77.3177 463.994 78.2155 464.323 79.254C464.376 79.4349 464.122 79.6024 463.994 79.4416C463.358 78.651 462.855 77.7666 462.226 76.9626C461.589 76.1519 460.906 75.3881 460.222 74.6176C458.869 73.09 457.482 71.5424 456.511 69.7401C454.615 66.2159 454.353 61.325 457.522 58.4239C459.016 57.0571 461.093 56.2397 463.117 56.6886C463.257 56.7355 463.231 56.9633 463.09 56.9432Z" fill="#101010"/>
<path d="M486.426 70.0753C486.654 68.5611 486.325 66.9464 485.334 65.7539C484.161 64.3469 482.325 64.0119 480.583 63.9114C478.56 63.7975 476.537 63.9181 474.507 63.8578C472.631 63.7975 470.781 63.5362 469.019 62.8796C468.102 62.5379 467.224 62.1091 466.386 61.5999C465.555 61.0907 464.698 60.5078 464.075 59.7507C463.961 59.6167 464.108 59.3621 464.283 59.4827C465.026 59.9986 465.716 60.5882 466.487 61.0706C467.264 61.5597 468.088 61.9818 468.939 62.3168C470.768 63.0337 472.704 63.3352 474.667 63.4223C476.731 63.5161 478.801 63.4156 480.865 63.5898C482.56 63.7372 484.275 64.1526 485.474 65.4457C486.044 66.0621 486.466 66.8124 486.694 67.6164C486.814 68.0251 486.881 68.4539 486.888 68.8827C486.895 69.3182 486.801 69.7269 486.66 70.1356C486.613 70.2964 486.406 70.2294 486.426 70.0753Z" fill="#101010"/>
<path d="M489.448 85.7127C490.104 82.9858 491.109 80.3393 491.558 77.5655C491.779 76.1988 491.853 74.8052 491.645 73.4317C491.464 72.2659 491.082 71.0532 490.225 70.2023C489.789 69.7668 489.227 69.4653 488.617 69.3447C487.96 69.2174 487.424 69.3849 486.821 69.6261C486.674 69.6864 486.547 69.4586 486.667 69.3581C487.491 68.6345 488.898 68.9025 489.756 69.4184C490.788 70.0415 491.397 71.1738 491.705 72.3061C492.463 75.0866 491.906 78.0881 491.19 80.815C490.747 82.4833 490.252 84.1449 489.682 85.773C489.622 85.9204 489.407 85.8668 489.448 85.7127Z" fill="#101010"/>
<g filter="url(#filter0_d_2435_411)">
<path d="M282.27 123.343H110.2C102.509 123.343 96.2698 115.747 96.2698 106.373V79.313C96.2698 69.9434 102.509 62.3433 110.2 62.3433H268.339C276.034 62.3433 282.27 69.9434 282.27 79.313V123.343Z" fill="white"/>
</g>
<path d="M251.837 79.9824H118.804C116.721 79.9824 115.032 81.6713 115.032 83.7546C115.032 85.8379 116.721 87.5268 118.804 87.5268H251.837C253.921 87.5268 255.61 85.8379 255.61 83.7546C255.61 81.6713 253.921 79.9824 251.837 79.9824Z" fill="#C4E2D7"/>
<path d="M184.156 96.4009H118.804C116.721 96.4009 115.032 98.0897 115.032 100.173C115.032 102.256 116.721 103.945 118.804 103.945H184.156C186.24 103.945 187.929 102.256 187.929 100.173C187.929 98.0897 186.24 96.4009 184.156 96.4009Z" fill="#C4E2D7"/>
<g filter="url(#filter1_d_2435_411)">
<path d="M233.27 297.343H105.605C99.8987 297.343 95.2698 289.747 95.2698 280.373V253.313C95.2698 243.943 99.8987 236.343 105.605 236.343H222.934C228.643 236.343 233.27 243.943 233.27 253.313V297.343Z" fill="white"/>
</g>
<path d="M202.27 254.343H116.27C114.061 254.343 112.27 256.134 112.27 258.343C112.27 260.552 114.061 262.343 116.27 262.343H202.27C204.479 262.343 206.27 260.552 206.27 258.343C206.27 256.134 204.479 254.343 202.27 254.343Z" fill="#C4E2D7"/>
<path d="M157.27 270.343H116.27C114.061 270.343 112.27 272.134 112.27 274.343C112.27 276.552 114.061 278.343 116.27 278.343H157.27C159.479 278.343 161.27 276.552 161.27 274.343C161.27 272.134 159.479 270.343 157.27 270.343Z" fill="#C4E2D7"/>
<path d="M12.685 317.367L13.8709 314.326L13.2746 304.825L23.559 305.227V314.158L24.1285 317.361L21.884 325.206L13.6431 323.773L12.685 317.367Z" fill="#FFD4CA"/>
<g opacity="0.5">
<path opacity="0.5" d="M13.2745 304.825L13.8641 314.326L12.6782 317.367L13.6364 323.773L15.6195 324.114C15.7602 323.679 15.7937 323.203 15.7669 322.748C15.6731 321.052 14.9696 319.19 15.9076 317.776C16.122 317.455 16.4101 317.187 16.5843 316.838C17.1806 315.672 16.2895 314.352 15.7066 313.187C14.4403 310.654 14.6145 307.733 15.0634 304.892L13.2745 304.825Z" fill="#C5AA9F"/>
</g>
<path d="M11.8742 324.054V326.761C11.8742 326.962 11.9345 327.156 12.0417 327.317C12.3901 327.84 13.2611 328.999 14.447 329.575C14.9696 329.83 15.4117 330.218 15.74 330.701C16.5373 331.873 18.6679 333.99 24.0345 335.009C28.7848 335.913 31.9472 335.176 33.6691 334.486C34.6137 334.104 35.2436 333.193 35.2436 332.175V330.178L11.8742 324.054Z" fill="white"/>
<path d="M64.4486 142.848C64.4486 142.848 66.3849 139.866 62.7066 133.562C60.2746 129.394 56.0402 139.364 56.0402 139.364C56.0402 139.364 56.7839 144.148 64.4486 142.848Z" fill="#ffbf00"/>
<path d="M54.1374 306.353C54.1374 306.353 51.8327 312.59 59.0284 317.99V327.37H41.3473C41.3473 327.37 44.9049 313.957 43.0155 306.353H54.1374Z" fill="#FFD4CA"/>
<path d="M57.541 316.188C57.541 316.188 62.8138 323.257 67.9527 324.671C67.9527 324.671 73.8553 326.406 77.7346 326.962C79.108 327.156 80.1332 328.322 80.1332 329.709V330.714H40.5768L41.8565 317.321L43.2902 317.435C43.2902 317.428 56.2546 330.969 57.541 316.188Z" fill="#0B2F2F"/>
<path d="M78.3107 332.965H42.111C40.751 332.965 40.2082 329.193 40.8782 329.22L77.8619 330.553C78.5721 330.587 79.2152 330.58 79.6641 330.01L80.1331 329.675V331.089C80.1331 332.121 79.3157 332.965 78.3107 332.965Z" fill="white"/>
<path d="M45.8765 69.5105C45.3204 70.5959 44.8045 71.7282 43.9804 72.626C43.1563 73.5305 41.9437 74.1804 40.7444 73.9794C40.1682 73.8856 39.6456 73.6109 39.1364 73.3362C38.252 72.8538 37.3609 72.3379 36.6641 71.6143C32.1551 66.8908 37.448 58.0402 41.8766 55.1459C44.9251 53.156 51.4375 51.6485 51.069 57.263C50.7809 61.7855 47.8664 65.6178 45.8765 69.5105Z" fill="#101010"/>
<path d="M19.2977 44.9752C17.998 43.327 16.1756 42.0808 14.1187 41.7123C11.7201 41.2835 9.05356 42.1947 7.67337 44.2047C6.72198 45.5916 6.4473 47.3671 6.6818 49.0286C6.92299 50.6902 7.64654 52.2513 8.55773 53.665C9.87091 55.7018 11.3114 56.2847 13.4018 57.1624C14.4939 57.6247 15.5927 57.9463 16.792 57.953C17.462 57.9597 19.3715 57.8994 19.8204 57.283L21.6561 54.7169C21.8504 54.4422 21.8102 53.0419 21.8437 52.6198C21.9107 51.8694 21.7767 51.1056 21.6293 50.3686C21.3211 48.774 20.7717 47.213 19.894 45.8328C19.7131 45.538 19.5121 45.2499 19.2977 44.9752Z" fill="#101010"/>
<path d="M21.8438 52.6129C21.9108 51.8626 21.7767 51.0988 21.6293 50.3618C21.3211 48.7672 20.7718 47.2061 19.8941 45.8259C19.7065 45.5311 19.5055 45.2497 19.2911 44.975C17.9913 43.3268 16.1689 42.0807 14.112 41.7122C13.5559 41.6117 12.9797 41.5849 12.4102 41.6318C13.6162 42.5363 14.5274 43.8226 15.0098 45.2497C15.2912 46.0738 15.3046 46.8577 15.3984 47.7086C15.4922 48.5394 15.9143 49.3099 16.0818 50.1474C16.5575 52.5325 15.5659 55.0249 13.978 56.8674C13.8641 57.0014 13.7436 57.1287 13.6297 57.256C14.6481 57.6647 15.6731 57.9461 16.792 57.9528C17.462 57.9595 19.3715 57.8992 19.8137 57.2828L21.6495 54.7167C21.8438 54.4353 21.8036 53.035 21.8438 52.6129Z" fill="#101010"/>
<path d="M18.6949 86.6084C18.0316 88.3772 17.1874 90.1058 16.9194 91.9751C16.6447 93.8444 17.0601 95.9481 18.5206 97.1474C19.3045 97.7906 20.2961 98.1055 21.2676 98.3936C23.2173 98.9698 25.2139 99.479 27.244 99.4254C30.2254 99.3517 33.2002 99.8073 36.1817 99.7135C38.4931 99.6398 40.1548 98.7688 42.5198 99.5259C44.0675 100.022 45.7157 100.658 47.2634 100.156C48.5632 99.7403 49.5145 98.5611 49.9433 97.2613C50.3721 95.9682 50.3386 94.5612 50.1778 93.2079C49.6954 89.2951 48.2081 85.5565 48.6101 81.5701C48.9518 78.2134 47.2097 75.5134 46.8948 72.1567C46.734 70.4683 47.0557 68.7866 47.5113 67.1652C47.8061 66.1066 48.6436 64.8873 48.1143 63.8421C47.0088 61.6445 42.5734 60.5256 40.4161 60.1169C37.5753 59.5809 34.6675 59.601 31.7798 59.6345C30.5069 59.6479 29.2205 59.668 28.0078 60.0365C26.1117 60.6194 23.4049 62.8304 22.3128 64.4652C20.457 67.2322 21.0264 70.4817 20.9527 73.6307C20.8388 78.0459 20.2492 82.4746 18.6949 86.6084Z" fill="#101010"/>
<path d="M50.1643 262.321C55.2448 262.321 59.3634 258.202 59.3634 253.122C59.3634 248.041 55.2448 243.923 50.1643 243.923C45.0839 243.923 40.9654 248.041 40.9654 253.122C40.9654 258.202 45.0839 262.321 50.1643 262.321Z" fill="url(#paint0_linear_2435_411)"/>
<path d="M39.565 203C50.1441 203 58.7201 194.424 58.7201 183.845C58.7201 173.266 50.1441 164.689 39.565 164.689C28.986 164.689 20.4099 173.266 20.4099 183.845C20.4099 194.424 28.986 203 39.565 203Z" fill="url(#paint1_linear_2435_411)"/>
<path d="M58.7067 181.861C58.6732 182.947 59.2226 251.554 59.2226 251.554H40.9653L28.3427 186.417L57.2998 172.374L58.7067 181.861Z" fill="url(#paint2_linear_2435_411)"/>
<path d="M40.9652 251.554L39.7726 264.398C39.6319 265.905 39.6051 267.42 39.6989 268.934L42.0841 308.912C42.0841 308.912 47.5781 313.033 53.9363 308.912L59.2225 254.703L40.9652 251.554Z" fill="url(#paint3_linear_2435_411)"/>
<path d="M59.3566 253.122C59.3566 252.586 59.3097 252.063 59.2226 251.554C59.2226 251.554 58.7804 196.172 58.7134 184.139C58.7134 184.039 58.7201 183.945 58.7201 183.845C58.7201 183.69 58.7134 183.543 58.7067 183.396C58.7 182.491 58.7 181.955 58.7067 181.861L57.2997 172.374L55.5175 173.239C52.0872 168.086 46.2248 164.689 39.565 164.689C28.9858 164.689 20.4099 173.265 20.4099 183.845C20.4099 191.422 24.8051 197.968 31.1834 201.077L40.9653 251.554H41.0993C41.0993 251.561 41.0993 251.567 41.0926 251.574L40.9586 251.554L39.7661 264.398C39.6254 265.905 39.5985 267.42 39.6923 268.934L42.0775 308.912C42.0775 308.912 47.5714 313.033 53.9296 308.912L59.2159 254.703C59.3097 254.187 59.3566 253.665 59.3566 253.122Z" fill="#164343"/>
<path d="M47.0957 245.169C45.5413 242.482 45.7624 239.173 45.8629 236.064C46.3252 222.249 43.5112 208.339 37.7158 195.79L35.9873 191.764C34.8617 187.308 33.6021 182.893 32.1951 178.518C31.1097 175.128 29.7831 171.57 27.3644 169.064C23.11 172.575 20.3965 177.895 20.3965 183.845C20.3965 191.422 24.7916 197.968 31.1767 201.077L40.9585 251.554H41.0926C41.0926 251.561 41.0926 251.567 41.0859 251.574L40.9518 251.554L39.7593 264.398C39.6186 265.905 39.5917 267.419 39.6855 268.934L41.3806 297.294C42.3655 284.243 43.3505 271.198 44.342 258.147C44.4358 256.914 44.6569 255.48 45.7423 254.897C46.084 254.716 46.4727 254.643 46.801 254.442C47.759 253.859 47.7925 252.385 47.1694 251.454C46.5463 250.522 45.481 250 44.4693 249.517C46.1242 249.624 47.7724 249.732 49.4273 249.839C49.4407 248.063 47.9801 246.697 47.0957 245.169Z" fill="#164343"/>
<path d="M26.5941 202.557C37.051 202.557 45.5281 194.08 45.5281 183.623C45.5281 173.167 37.051 164.689 26.5941 164.689C16.1371 164.689 7.66005 173.167 7.66005 183.623C7.66005 194.08 16.1371 202.557 26.5941 202.557Z" fill="url(#paint4_linear_2435_411)"/>
<path d="M22.6944 262.635C28.4262 262.635 33.0726 257.989 33.0726 252.257C33.0726 246.525 28.4262 241.879 22.6944 241.879C16.9627 241.879 12.3163 246.525 12.3163 252.257C12.3163 257.989 16.9627 262.635 22.6944 262.635Z" fill="url(#paint5_linear_2435_411)"/>
<path d="M8.11551 187.784L12.3164 252.257L33.0326 253.122L45.4543 185.265L8.11551 187.784Z" fill="url(#paint6_linear_2435_411)"/>
<path d="M12.3164 252.257L10.1791 265.349C9.41534 270.039 9.23442 274.809 9.64982 279.546L12.3164 309.944C12.3164 309.944 16.6646 314.406 24.2222 309.944L33.0259 253.128L12.3164 252.257Z" fill="url(#paint7_linear_2435_411)"/>
<path d="M48.6167 176.247C48.6167 165.788 37.0527 164.689 26.5941 164.689C16.1355 164.689 7.66005 173.165 7.66005 183.623C7.66005 185.057 7.82081 186.444 8.12231 187.784H8.1156L12.3232 252.258L10.1859 265.349C9.42214 270.039 9.24122 274.81 9.65662 279.546L12.3232 309.944C12.3232 309.944 16.6714 314.406 24.229 309.944L32.8116 254.589C32.9188 254.113 32.9992 253.624 33.0394 253.122C33.0327 253.122 48.6167 176.796 48.6167 176.247Z" fill="#164343"/>
<g opacity="0.1">
<path opacity="0.1" d="M27.78 164.689C27.3847 164.683 26.9894 164.683 26.5941 164.683C16.1355 164.683 7.66005 173.158 7.66005 183.617C7.66005 185.05 7.82081 186.437 8.12231 187.777H8.1156L12.3165 252.251L10.1792 265.342C9.41544 270.032 9.23451 274.803 9.64991 279.54L12.3165 309.937C12.3165 309.937 13.1004 310.741 14.581 311.324C15.519 305.033 15.4386 298.587 14.3399 292.323C13.5426 287.78 12.216 283.03 13.6967 278.655C14.3332 279.787 15.0166 280.973 16.1087 281.677C17.2007 282.38 18.8422 282.434 19.673 281.429C20.0884 280.926 20.2358 280.256 20.3162 279.613C21.3212 271.647 14.5342 264.378 15.0568 256.364C16.0618 256.746 17.0668 257.128 18.0718 257.51C19.7267 254.877 13.355 251.829 15.3516 249.45C16.8054 250.609 18.5743 251.366 20.41 251.621C21.1671 250.02 19.3715 248.499 18.3732 247.038C16.236 243.909 17.7099 239.729 18.7149 236.077C20.3631 230.081 20.5105 223.676 19.1437 217.612C17.3549 209.673 13.0334 201.405 16.1087 193.868C16.4637 192.997 16.9998 192.085 17.8909 191.797C19.4251 191.295 21.3279 192.802 22.5942 191.804C22.42 189.399 20.7584 187.389 19.9008 185.138C17.6095 179.134 21.2676 172.555 25.3412 167.59C26.1452 166.632 26.9626 165.667 27.78 164.689Z" fill="white"/>
</g>
<path d="M3.10405 100.069L19.9343 90.7959H41.9972L50.084 94.5947C52.9649 95.9481 54.8007 98.8425 54.8007 102.018V113.723C54.8007 113.723 57.8894 124.631 57.206 127.719C56.5159 130.808 54.2848 138.921 54.2848 138.921L57.3065 172.374C57.3065 172.374 53.1861 181.593 38.7209 179.436C33.9238 178.726 29.4951 176.508 25.8972 173.259C22.5138 170.203 16.5776 167.195 9.89779 174.257L16.1689 156.69L3.10405 100.069Z" fill="#ffbf00"/>
<g opacity="0.3">
<path opacity="0.3" d="M44.6302 134.661C44.6972 132.543 43.5784 130.232 41.5483 129.629C38.0308 128.577 34.6004 132.979 31.0629 131.981C28.9926 131.398 27.8604 129.187 27.2775 127.123C26.6879 125.06 26.3462 122.802 24.9191 121.194C24.0883 120.256 22.956 119.633 22.018 118.795C18.5005 115.653 19.3447 109.965 16.4302 106.186C14.2528 103.358 10.3133 101.59 7.01689 102.95C6.37369 103.211 5.76392 103.6 5.34853 104.149C4.84603 104.806 4.64507 105.65 4.54457 106.467C3.95497 111.15 6.95651 116.752 8.0285 121.395C9.26799 126.775 10.5075 132.155 11.747 137.535C13.221 143.927 14.6949 150.312 16.1622 156.703L9.8911 174.271C16.5709 167.202 22.5071 170.217 25.8905 173.272C27.8603 175.048 30.0847 176.515 32.4699 177.594C32.7245 176.549 32.9121 175.49 33.0528 174.438C33.5821 170.358 33.4347 166.211 34.0578 162.144C35.2303 154.479 39.0292 147.504 42.6002 140.623C43.5717 138.741 44.5565 136.778 44.6302 134.661Z" fill="#134611"/>
</g>
<path d="M40.2015 79.7212L41.9971 90.7962L38.9017 104.464C38.9084 104.779 38.5332 104.94 38.3054 104.725L23.8001 90.7962L27.552 74.0195L40.2015 79.7212Z" fill="#FFD4CA"/>
<path d="M29.12 75.8618C28.8453 80.6925 34.5402 84.0291 38.9621 85.8783C39.0827 85.9252 41.2535 86.9301 41.3808 86.9703L40.2083 79.721L28.8184 74.5889C28.9926 75.3929 29.12 75.8618 29.12 75.8618Z" fill="#C5AA9F"/>
<path d="M47.9466 54.6903L50.0906 63.7419C50.1375 64.03 50.1308 64.3181 50.0638 64.6062L49.4541 67.1857L49.9097 70.1739C50.0772 71.2593 49.9834 72.3648 49.635 73.4099L47.5781 79.6275C46.6267 82.5018 43.7391 84.2705 40.7442 83.8082C36.0074 83.0779 29.6759 81.2154 28.7781 76.4651C28.7781 76.4651 19.3312 59.4607 26.4599 55.166C33.5886 50.8714 38.4528 43.6154 47.9466 54.6903Z" fill="#FFD4CA"/>
<path d="M47.9466 54.6902C46.4995 53.0018 45.1662 51.7422 43.9133 50.8311C43.652 53.1492 43.4242 55.4674 43.2299 57.7923C43.1562 58.7035 43.0825 59.6348 43.3103 60.5192C43.719 62.1204 45.0656 63.4403 45.1393 65.0952C45.1862 66.0935 44.7508 67.0449 44.6101 68.0298C44.2282 70.7231 46.0438 73.383 45.5882 76.063C45.2198 78.207 43.4509 79.9624 43.2901 82.1264C43.2499 82.6356 43.3036 83.1314 43.4242 83.6272C45.3404 83.0711 46.9349 81.6105 47.5982 79.614L49.6551 73.3964C50.0035 72.3512 50.0906 71.2457 49.9298 70.1604L49.4742 67.1722L50.0839 64.5927C50.1509 64.3113 50.1576 64.0165 50.1107 63.7284L47.9466 54.6902Z" fill="#FFD8CA"/>
<path d="M27.2305 55.1589C21.7768 58.4419 26.0245 69.1551 28.3159 74.0192L23.7934 90.7958L24.7984 91.7606C25.5287 91.1844 26.5136 90.2263 26.9692 89.8243C28.6777 88.3236 29.5085 88.5179 31.2706 87.0037C32.8183 85.6771 34.031 83.8949 34.3995 81.8916C34.5804 80.9 34.5536 79.8816 34.5469 78.87C34.4732 68.7598 37.1665 59.6814 44.054 52.0501C44.3555 51.7151 44.6637 51.3868 44.9786 51.0585C37.8164 45.5914 33.3609 51.4672 27.2305 55.1589Z" fill="#C5AA9F"/>
<path d="M42.9888 56.4922C34.9288 62.8706 30.7681 71.3728 29.1601 81.3557C28.9994 82.354 28.8587 83.3656 28.5103 84.3103C27.8135 86.2265 26.3194 87.7809 24.5774 88.8328C22.5875 90.0321 21.8036 89.7105 19.8673 90.9031C17.9244 92.1024 12.8525 94.6617 12.0552 95.124C11.6264 95.3786 11.1775 95.6064 10.742 95.8543C10.2932 95.1776 10.1056 93.0337 10.0922 92.1292C10.0654 90.2398 10.7421 88.1963 11.1843 86.3806C12.2094 82.2066 12.7654 78.1598 13.1674 73.9188C13.6029 69.2757 12.9932 64.7331 14.1121 60.1169C15.566 54.1205 20.2425 48.4791 25.3881 45.1894C28.3897 43.2733 31.8066 41.9199 35.3643 41.6653C38.2051 41.4576 41.1262 41.9869 43.6521 43.3269C46.9418 45.0755 50.6602 47.0319 52.0002 50.737C53.0119 53.551 52.7975 56.7066 51.625 59.4067C51.1493 60.5122 50.4391 61.8991 49.9098 62.9845C49.3202 61.8053 49.7089 60.1169 49.7826 58.8037C49.8563 57.4905 49.7223 56.0031 48.724 55.1455C47.5515 54.1339 45.6822 54.4756 44.436 55.3867C43.9469 55.7485 43.4645 56.117 42.9888 56.4922Z" fill="#101010"/>
<path d="M89.9419 115.298H67.3029C66.5592 115.298 65.8356 115.539 65.246 115.988L40.9721 134.386H67.7116L90.5449 117.08C91.302 116.511 90.8933 115.298 89.9419 115.298Z" fill="#164343"/>
<path d="M65.9226 117.114C66.5122 116.665 67.2358 116.424 67.9795 116.424H90.6185C90.7257 116.424 90.833 116.444 90.9268 116.47C91.0206 115.914 90.6252 115.305 89.9485 115.305H67.3095C66.5658 115.305 65.8422 115.546 65.2526 115.995L40.9788 134.393H43.1294L65.9226 117.114Z" fill="#164343"/>
<path d="M62.8676 141.119C64.9545 141.119 66.6464 139.427 66.6464 137.34C66.6464 135.253 64.9545 133.562 62.8676 133.562C60.7806 133.562 59.0888 135.253 59.0888 137.34C59.0888 139.427 60.7806 141.119 62.8676 141.119Z" fill="#FFD4CA"/>
<path d="M60.3618 134.386H55.511L54.2849 138.922L55.2698 149.842L65.1656 140.342L60.3618 134.386Z" fill="#FFD4CA"/>
<path d="M60.3618 134.513V129.421L59.4238 126.889C59.2362 126.373 59.4639 125.797 59.9597 125.555C60.4421 125.321 61.0317 125.482 61.3265 125.931L62.8743 128.309L63.3566 124.242C63.4236 123.653 63.8658 123.17 64.442 123.043C65.2259 122.869 65.9897 123.385 66.1237 124.175L66.6463 127.21L68.4285 121.167C68.596 120.604 69.1119 120.216 69.7015 120.216C70.4317 120.216 71.028 120.812 71.028 121.542V124.202L74.7666 119.412C75.0949 118.989 75.6577 118.822 76.1669 119.003C76.8972 119.257 77.2188 120.102 76.857 120.778L73.775 126.48L79.7581 121.884C80.5353 121.288 81.5402 121.066 82.4983 121.288L83.3024 121.475L74.713 129.428L68.6161 134.52L65.9227 139.558L60.3618 134.513Z" fill="#FFD4CA"/>
<path d="M78.4382 122.982L72.1402 128.617L73.775 126.48L78.4382 122.982Z" fill="#ffbf00"/>
<path d="M73.527 121L70.3982 125.066L72.3144 123.036L73.527 121Z" fill="#C5AA9F"/>
<path d="M68.1136 122.232L66.6464 127.204L65.648 129.421L67.0215 127.204L68.1136 122.232Z" fill="#C5AA9F"/>
<path d="M63.1689 125.796L62.7535 129.421L62.0701 130.64L63.3566 128.986L63.1689 125.796Z" fill="#C5AA9F"/>
<path d="M55.511 134.386H57.9766C57.9766 134.386 55.4172 139.551 64.4554 142.848L55.3636 150.847L54.2849 138.922L55.511 134.386Z" fill="#ffbf00"/>
<path d="M38.3524 43.8227C39.7996 44.7875 41.22 45.7925 42.4863 47.0052C43.1094 47.6015 43.699 48.2313 44.2417 48.8946C44.7911 49.5579 45.2801 50.2547 45.8027 50.9314C45.8362 50.9716 45.8899 50.918 45.8698 50.8778C45.4745 50.1073 44.9451 49.3971 44.4024 48.7338C43.8531 48.0571 43.2567 47.4072 42.627 46.7975C41.3741 45.5915 39.9805 44.486 38.4195 43.7088C38.3458 43.6619 38.2787 43.7691 38.3524 43.8227Z" fill="#101010"/>
<path d="M42.8883 54.4423C40.4026 55.1659 38.1582 56.7136 36.2889 58.4689C34.3057 60.3315 32.671 62.5425 31.3578 64.921C29.8905 67.5741 28.8051 70.4149 27.9006 73.2959C27.445 74.7498 27.0497 76.2171 26.6276 77.6843C26.2055 79.1449 25.7164 80.6055 24.9258 81.9187C23.2911 84.6389 20.6311 86.401 18.1723 88.3037C18.0852 88.3707 18.1991 88.5114 18.2862 88.4578C20.5843 87.024 22.869 85.3424 24.5172 83.1716C26.3194 80.7931 26.9291 77.8652 27.7465 75.058C29.3679 69.497 31.5386 63.8691 35.6055 59.6146C36.6306 58.5426 37.7562 57.5711 38.9823 56.7404C40.2218 55.9029 41.5551 55.2396 42.9353 54.6634C43.076 54.6031 43.029 54.4021 42.8883 54.4423Z" fill="#101010"/>
<path d="M28.0211 66.703C26.1518 69.1686 24.9592 72.0897 23.6461 74.8702C22.4334 77.4497 21.1068 80.0224 19.2107 82.1798C18.1722 83.359 16.973 84.364 15.6464 85.2015C15.5727 85.2484 15.6397 85.3623 15.7201 85.3221C18.1588 84.029 19.9812 81.7577 21.4217 79.4596C23.023 76.907 24.1888 74.1131 25.5154 71.4197C26.2993 69.8251 27.1702 68.2708 28.1484 66.7834C28.202 66.6963 28.0814 66.6293 28.0211 66.703Z" fill="#101010"/>
<path d="M38.4864 49.9129C37.3608 51.005 36.2754 52.1373 35.0962 53.1758C33.9304 54.2008 32.6641 55.2192 31.2773 55.9428C30.4666 56.3649 29.6156 56.7066 28.738 56.9545C28.7246 56.9612 28.7313 56.9813 28.7447 56.9813C31.8266 56.117 34.4061 54.174 36.6774 51.9899C37.3339 51.3534 37.9638 50.6834 38.5668 49.9933C38.6003 49.9397 38.5333 49.866 38.4864 49.9129Z" fill="#101010"/>
<path d="M47.1226 49.0356C48.1209 49.3036 48.8847 50.1411 49.3403 51.0322C49.615 51.5615 49.8026 52.1377 49.9835 52.7004C50.151 53.2297 50.2782 53.8662 50.5931 54.3285C50.64 54.3955 50.7406 54.3553 50.7205 54.2749C50.6535 53.9533 50.4994 53.6384 50.3989 53.3302C50.2917 53.0153 50.1978 52.6938 50.0907 52.3722C49.9098 51.8027 49.702 51.2332 49.4072 50.7173C48.9047 49.8396 48.1678 49.1026 47.1226 48.9619C47.0891 48.9552 47.0824 49.0222 47.1226 49.0356Z" fill="#101010"/>
<path d="M48.9584 47.3271C49.5078 47.8363 50.0706 48.3321 50.5597 48.9016C51.0555 49.4845 51.4709 50.1277 51.8059 50.8111C52.4826 52.1645 52.8578 53.7054 52.8109 55.2196C52.7573 57.0219 52.0136 58.6299 51.4575 60.3116C50.8746 62.0803 50.5329 63.9295 50.4592 65.7921C50.3721 67.8892 50.5731 70.0064 51.2029 72.0096C51.2632 72.2106 51.558 72.1302 51.5178 71.9225C51.1292 70.0399 50.9081 68.1237 50.9751 66.2008C51.0421 64.2846 51.3704 62.3751 51.9533 60.5528C52.2548 59.6215 52.6367 58.7103 52.898 57.7656C53.1124 56.9884 53.233 56.1911 53.2464 55.3804C53.2665 53.8595 52.9582 52.3588 52.3351 50.9719C51.6651 49.4912 50.5664 47.9234 49.0924 47.1462C48.9852 47.0926 48.8646 47.24 48.9584 47.3271Z" fill="#101010"/>
<path d="M16.4839 56.4589C14.8357 58.0334 14.1791 60.4855 13.7972 62.663C13.3885 64.9879 13.288 67.3597 12.9396 69.6912C12.5242 72.465 11.5996 75.1182 10.8157 77.8049C10.0318 80.4915 9.49581 83.2117 9.42881 86.0123C9.38861 87.5934 9.48906 89.1679 9.71016 90.7357C9.81736 91.5062 9.96476 92.2767 10.1323 93.0405C10.3065 93.811 10.474 94.5949 10.8358 95.3051C11.0033 95.6334 11.4253 95.3788 11.3784 95.0773C11.2779 94.3872 11.0569 93.7239 10.8961 93.0472C10.7353 92.3705 10.6013 91.6871 10.4941 91.0037C10.2864 89.6637 10.1792 88.3103 10.1658 86.957C10.139 84.1899 10.561 81.4764 11.298 78.8165C12.035 76.1567 12.9797 73.5437 13.4956 70.8235C13.9311 68.4986 14.0116 66.1403 14.2863 63.7953C14.4337 62.5357 14.648 61.2761 15.0299 60.0634C15.4185 58.8373 16.0282 57.7252 16.7183 56.6398C16.8121 56.4924 16.6045 56.3383 16.4839 56.4589Z" fill="#101010"/>
<path d="M44.523 54.4424C44.2751 54.6233 43.987 54.7573 43.7592 54.9516C43.4912 55.1794 43.2298 55.4072 42.9685 55.6417C42.4861 56.0638 42.0104 56.4859 41.5414 56.9147C40.5766 57.7924 39.6387 58.6902 38.7476 59.6483C36.9654 61.5578 35.411 63.7151 34.3524 66.1137C32.2084 70.9511 31.907 76.3847 29.6625 81.1819C29.1064 82.3677 28.4498 83.5201 27.6324 84.5452C27.2304 85.0544 26.7882 85.5301 26.3058 85.9656C25.8167 86.4145 25.2808 86.7964 24.7582 87.1984C24.3964 87.4731 24.6978 88.0225 25.1199 87.8215C26.1718 87.3123 27.0696 86.448 27.8334 85.577C28.6039 84.6926 29.2672 83.7077 29.8233 82.676C31.0025 80.4918 31.7395 78.1133 32.3424 75.7147C33.0124 73.0481 33.5551 70.3414 34.5132 67.7552C35.4311 65.2762 36.8113 63.0384 38.5265 61.0285C39.4846 59.9029 40.503 58.8376 41.5616 57.8192C42.0909 57.31 42.6269 56.8142 43.1629 56.3184C43.4308 56.0705 43.7055 55.8293 43.9735 55.5814C44.2616 55.3201 44.476 55.0186 44.744 54.7439C44.8713 54.5831 44.6905 54.3151 44.523 54.4424Z" fill="#101010"/>
<path d="M26.7883 132.543C26.7883 132.543 36.3023 134.111 32.8987 145.22C32.8987 145.22 20.4167 146.205 26.7883 132.543Z" fill="#ffbf00"/>
<path d="M56.891 121.053L32.5904 126.46C32.1616 126.554 31.7328 126.286 31.6323 125.85C31.5385 125.421 31.8064 124.993 32.2419 124.892L56.5426 119.485L58.2444 119.834C58.3382 119.854 58.365 119.974 58.2846 120.028L56.891 121.053Z" fill="white"/>
<path d="M17.5362 107.232C18.2203 103.017 15.3579 99.045 11.1429 98.3609C6.92786 97.6768 2.95635 100.539 2.27227 104.754C1.5882 108.969 4.45062 112.941 8.66565 113.625C12.8807 114.309 16.8522 111.447 17.5362 107.232Z" fill="#FFD4CA"/>
<path d="M11.7469 156.69C15.6988 156.69 18.9025 153.486 18.9025 149.534C18.9025 145.583 15.6988 142.379 11.7469 142.379C7.79505 142.379 4.59146 145.583 4.59146 149.534C4.59146 153.486 7.79505 156.69 11.7469 156.69Z" fill="#FFD4CA"/>
<path d="M36.0677 138.922C38.2138 138.922 39.9536 137.182 39.9536 135.036C39.9536 132.89 38.2138 131.15 36.0677 131.15C33.9215 131.15 32.1817 132.89 32.1817 135.036C32.1817 137.182 33.9215 138.922 36.0677 138.922Z" fill="#FFD4CA"/>
<path d="M2.15939 105.998L4.59147 149.876L16.5374 144.221L17.6161 104.538L2.15939 105.998Z" fill="#FFD4CA"/>
<path d="M12.3163 142.379L34.004 131.746L37.8967 138.466L15.9209 155.343L12.3163 142.379Z" fill="#FFD4CA"/>
<path d="M34.0041 131.746L37.334 128.121L38.0442 125.24L40.7443 124.637L46.3186 121.649L48.7306 120.443C48.9919 120.316 49.3068 120.39 49.481 120.624L49.8226 121.093C50.0102 121.348 49.9701 121.696 49.7289 121.904L48.1477 123.257L50.151 124.577V125.991L50.9951 126.942C51.1559 127.123 51.2699 127.337 51.3235 127.572L51.8729 129.937C52.0471 130.687 51.7791 131.471 51.1895 131.96L47.4643 135.042L40.4227 136.824L37.8901 138.466L34.0041 131.746Z" fill="#FFD4CA"/>
<path d="M41.9972 122.721L44.8581 120.416C45.0926 120.229 45.3941 120.162 45.6821 120.242L47.9266 120.852L45.7894 121.877L41.9972 122.721Z" fill="#FFD4CA"/>
<path d="M48.1543 123.257C48.1543 123.257 46.7205 124.973 46.2649 125.321C45.8093 125.669 42.3119 127.726 42.3119 127.726L46.6602 126.48L48.7304 123.639L48.1543 123.257Z" fill="#C5AA9F"/>
<path d="M50.1577 125.984L47.9266 128.523L44.5498 130.64L48.5028 129.421L50.5999 126.48L50.1577 125.984Z" fill="#C5AA9F"/>
<path d="M51.196 127.204L50.0437 130.011L48.7371 132.128L50.5997 130.641L51.5846 128.664L51.196 127.204Z" fill="#C5AA9F"/>
<path d="M3.71375 99.7338C1.83106 100.759 0.718863 102.776 0.852861 104.913L3.81426 152.295C4.15596 157.755 10.3198 160.75 14.8222 157.655L32.8987 145.226C32.8987 145.226 24.0815 142.432 26.7883 132.55L18.9025 137.816L18.1521 99.7405L9.88436 96.3369L3.71375 99.7338Z" fill="#ffbf00"/>
<path d="M12.685 317.368H13.2679C13.2679 317.368 12.2294 325.133 17.4554 318.433C17.4554 318.433 18.6881 314.701 21.6026 315.197C22.7684 315.398 23.7265 316.242 24.1285 317.361C24.7985 319.21 26.3595 322.794 28.8921 324.55C32.3828 326.975 35.6859 329.307 35.1968 330.566C34.7144 331.826 30.2455 334.251 21.7098 332.121C21.7098 332.121 15.0367 329.588 12.1222 324.63C11.9145 324.275 11.8341 323.86 11.8877 323.458L12.685 317.368Z" fill="#0B2F2F"/>
<g opacity="0.15">
<path opacity="0.15" d="M32.6776 145.139C32.222 144.965 31.1366 144.496 29.9842 143.612C29.2003 143.591 28.3763 143.766 27.6929 144.101C25.9107 144.985 24.4836 146.56 22.5741 147.102C20.2358 147.772 17.797 146.767 15.432 146.198C13.0669 145.622 10.0988 145.715 8.7923 147.766C8.397 145.555 9.36183 143.156 11.1775 141.829C11.345 141.287 10.4204 141.025 9.9849 141.394C9.54941 141.762 9.40875 142.379 9.02015 142.794C8.19606 143.672 6.60147 143.23 5.91137 142.238C5.22128 141.247 5.18109 139.96 5.16769 138.754C5.07389 131.82 4.98677 124.892 4.89297 117.958C5.57636 118.232 6.25971 118.507 6.94311 118.775C3.21125 113.482 1.82439 106.682 2.86958 100.303C1.50949 101.409 0.738995 103.117 0.852894 104.906L3.81429 152.288C4.15599 157.748 10.3199 160.743 14.8222 157.648L32.7445 145.32C32.7244 145.26 32.6977 145.199 32.6776 145.139Z" fill="white"/>
</g>
<defs>
<filter id="filter0_d_2435_411" x="84.2698" y="58.3433" width="210" height="85" filterUnits="userSpaceOnUse" color-interpolation-filters="sRGB">
<feFlood flood-opacity="0" result="BackgroundImageFix"/>
<feColorMatrix in="SourceAlpha" type="matrix" values="0 0 0 0 0 0 0 0 0 0 0 0 0 0 0 0 0 0 127 0" result="hardAlpha"/>
<feOffset dy="8"/>
<feGaussianBlur stdDeviation="6"/>
<feColorMatrix type="matrix" values="0 0 0 0 0 0 0 0 0 0 0 0 0 0 0 0 0 0 0.08 0"/>
<feBlend mode="normal" in2="BackgroundImageFix" result="effect1_dropShadow_2435_411"/>
<feBlend mode="normal" in="SourceGraphic" in2="effect1_dropShadow_2435_411" result="shape"/>
</filter>
<filter id="filter1_d_2435_411" x="83.2698" y="232.343" width="162" height="85" filterUnits="userSpaceOnUse" color-interpolation-filters="sRGB">
<feFlood flood-opacity="0" result="BackgroundImageFix"/>
<feColorMatrix in="SourceAlpha" type="matrix" values="0 0 0 0 0 0 0 0 0 0 0 0 0 0 0 0 0 0 127 0" result="hardAlpha"/>
<feOffset dy="8"/>
<feGaussianBlur stdDeviation="6"/>
<feColorMatrix type="matrix" values="0 0 0 0 0.00220484 0 0 0 0 0.421204 0 0 0 0 0.529167 0 0 0 0.08 0"/>
<feBlend mode="normal" in2="BackgroundImageFix" result="effect1_dropShadow_2435_411"/>
<feBlend mode="normal" in="SourceGraphic" in2="effect1_dropShadow_2435_411" result="shape"/>
</filter>
<linearGradient id="paint0_linear_2435_411" x1="40.9672" y1="253.123" x2="59.3595" y2="253.123" gradientUnits="userSpaceOnUse">
<stop offset="0.0729" stop-color="#F7A66A"/>
<stop offset="1" stop-color="#FCD991"/>
</linearGradient>
<linearGradient id="paint1_linear_2435_411" x1="20.4091" y1="183.845" x2="58.7245" y2="183.845" gradientUnits="userSpaceOnUse">
<stop offset="0.0729" stop-color="#F7A66A"/>
<stop offset="1" stop-color="#FCD991"/>
</linearGradient>
<linearGradient id="paint2_linear_2435_411" x1="28.3464" y1="211.964" x2="59.2235" y2="211.964" gradientUnits="userSpaceOnUse">
<stop offset="0.0729" stop-color="#F7A66A"/>
<stop offset="1" stop-color="#FCD991"/>
</linearGradient>
<linearGradient id="paint3_linear_2435_411" x1="39.6492" y1="281.149" x2="59.2234" y2="281.149" gradientUnits="userSpaceOnUse">
<stop offset="0.0729" stop-color="#F7A66A"/>
<stop offset="1" stop-color="#FCD991"/>
</linearGradient>
<linearGradient id="paint4_linear_2435_411" x1="7.65516" y1="183.624" x2="45.5288" y2="183.624" gradientUnits="userSpaceOnUse">
<stop offset="0.0729" stop-color="#F7A66A"/>
<stop offset="1" stop-color="#FCD991"/>
</linearGradient>
<linearGradient id="paint5_linear_2435_411" x1="12.3193" y1="252.259" x2="33.0724" y2="252.259" gradientUnits="userSpaceOnUse">
<stop offset="0.0729" stop-color="#F7A66A"/>
<stop offset="1" stop-color="#FCD991"/>
</linearGradient>
<linearGradient id="paint6_linear_2435_411" x1="8.11524" y1="219.194" x2="45.4572" y2="219.194" gradientUnits="userSpaceOnUse">
<stop offset="0.0729" stop-color="#F7A66A"/>
<stop offset="1" stop-color="#FCD991"/>
</linearGradient>
<linearGradient id="paint7_linear_2435_411" x1="9.43482" y1="282.092" x2="33.0339" y2="282.092" gradientUnits="userSpaceOnUse">
<stop offset="0.0729" stop-color="#F7A66A"/>
<stop offset="1" stop-color="#FCD991"/>
</linearGradient>
</defs>
</svg>
