<svg width="61" height="61" viewBox="0 0 61 61" fill="none" xmlns="http://www.w3.org/2000/svg">
<circle cx="30.3373" cy="30.3373" r="30.3373" fill="#5643D1"/>
<path d="M42.1251 21.25C40.6913 20.8125 39.1155 20.625 37.6042 20.625C35.0855 20.625 32.373 21.125 30.5001 22.5C28.6272 21.125 25.9147 20.625 23.3959 20.625C20.8772 20.625 18.1647 21.125 16.2917 22.5V40.8125C16.2917 41.125 16.6147 41.4375 16.9376 41.4375C17.0667 41.4375 17.1313 41.375 17.2605 41.375C19.0042 40.5625 21.523 40 23.3959 40C25.9147 40 28.6272 40.5 30.5001 41.875C32.2438 40.8125 35.4084 40 37.6042 40C39.7355 40 41.9313 40.375 43.7397 41.3125C43.8688 41.375 43.9334 41.375 44.0626 41.375C44.3855 41.375 44.7084 41.0625 44.7084 40.75V22.5C43.9334 21.9375 43.0938 21.5625 42.1251 21.25ZM42.1251 38.125C40.7042 37.6875 39.1542 37.5 37.6042 37.5C35.4084 37.5 32.2438 38.3125 30.5001 39.375V25C32.2438 23.9375 35.4084 23.125 37.6042 23.125C39.1542 23.125 40.7042 23.3125 42.1251 23.75V38.125Z" fill="white"/>
</svg>
