<svg width="61" height="61" viewBox="0 0 61 61" fill="none" xmlns="http://www.w3.org/2000/svg">
<circle cx="30.5" cy="30.5" r="30.5" fill="#EE9E54"/>
<path d="M30.0001 21.3583C31.6434 21.3583 32.9751 22.69 32.9751 24.3333C32.9751 25.9767 31.6434 27.3083 30.0001 27.3083C28.3567 27.3083 27.0251 25.9767 27.0251 24.3333C27.0251 22.69 28.3567 21.3583 30.0001 21.3583ZM30.0001 34.1083C34.2076 34.1083 38.6417 36.1767 38.6417 37.0833V38.6417H21.3584V37.0833C21.3584 36.1767 25.7926 34.1083 30.0001 34.1083ZM30.0001 18.6667C26.8692 18.6667 24.3334 21.2025 24.3334 24.3333C24.3334 27.4642 26.8692 30 30.0001 30C33.1309 30 35.6667 27.4642 35.6667 24.3333C35.6667 21.2025 33.1309 18.6667 30.0001 18.6667ZM30.0001 31.4167C26.2176 31.4167 18.6667 33.315 18.6667 37.0833V41.3333H41.3334V37.0833C41.3334 33.315 33.7826 31.4167 30.0001 31.4167Z" fill="white"/>
</svg>
