<svg width="35" height="28" viewBox="0 0 35 28" fill="none" xmlns="http://www.w3.org/2000/svg">
<path d="M34.0918 9.24011C34.0918 3.36012 30.6118 0.120117 26.6518 0.120117C23.0518 0.120117 20.2918 3.00012 20.2918 6.48011C20.2918 10.0801 22.6918 12.6001 26.0518 12.6001C26.6518 12.6001 27.4918 12.4801 27.6118 12.4801C27.2518 16.3201 23.7718 21.1201 19.9318 23.6401L24.3718 27.2401C29.8918 23.2801 34.0918 16.5601 34.0918 9.24011ZM14.8918 9.24011C14.8918 3.36012 11.4118 0.120117 7.45178 0.120117C3.85178 0.120117 0.971781 3.00012 0.971781 6.48011C0.971781 10.0801 3.49178 12.6001 6.85178 12.6001C7.45178 12.6001 8.29178 12.4801 8.41178 12.4801C7.93178 16.3201 4.57178 21.1201 0.731781 23.6401L5.17178 27.2401C10.6918 23.2801 14.8918 16.5601 14.8918 9.24011Z" fill="#16A571"/>
</svg>
