<svg width="63" height="63" viewBox="0 0 63 63" fill="none" xmlns="http://www.w3.org/2000/svg">
<rect x="1.96069" y="1.54797" width="59" height="59" rx="8.5" stroke="white" stroke-width="3"/>
<path d="M30.4608 33.7979C30.4608 31.0679 28.7108 29.5279 26.5408 29.5279C25.7008 29.5279 25.0708 29.7379 24.5808 30.0179C24.5808 27.7779 26.5408 25.9579 29.2708 25.3979V22.4579C24.3708 23.1579 20.8008 27.2179 20.8008 32.3279C20.8008 36.1079 23.0408 38.4179 25.8408 38.4179C28.6408 38.4179 30.4608 36.458 30.4608 33.7979ZM42.9908 33.7979C42.9908 31.0679 41.1708 29.5279 39.0008 29.5279C38.2308 29.5279 37.6008 29.668 37.1108 29.9479C37.1108 27.7779 39.0708 25.9579 41.8008 25.3979V22.4579C36.9008 23.1579 33.2608 27.2179 33.2608 32.3279C33.2608 36.1079 35.5008 38.4179 38.3708 38.4179C41.1008 38.4179 42.9908 36.458 42.9908 33.7979Z" fill="white"/>
</svg>
