<svg width="30" height="30" viewBox="0 0 30 30" fill="none" xmlns="http://www.w3.org/2000/svg">
<path d="M15 0C12.0333 0 9.13319 0.879734 6.66645 2.52796C4.19972 4.17618 2.27713 6.51885 1.14181 9.25975C0.00649926 12.0006 -0.290551 15.0166 0.288228 17.9263C0.867006 20.8361 2.29562 23.5088 4.3934 25.6066C6.49119 27.7044 9.16394 29.133 12.0737 29.7118C14.9834 30.2905 17.9994 29.9935 20.7403 28.8582C23.4811 27.7229 25.8238 25.8003 27.472 23.3335C29.1203 20.8668 30 17.9667 30 15C30 13.0302 29.612 11.0796 28.8582 9.25975C28.1044 7.43986 26.9995 5.78628 25.6066 4.3934C24.2137 3.00052 22.5601 1.89563 20.7403 1.14181C18.9204 0.387986 16.9698 0 15 0V0ZM15 27C12.6266 27 10.3066 26.2962 8.33316 24.9776C6.35977 23.6591 4.8217 21.7849 3.91345 19.5922C3.0052 17.3995 2.76756 14.9867 3.23058 12.6589C3.69361 10.3311 4.83649 8.19295 6.51472 6.51472C8.19295 4.83649 10.3311 3.6936 12.6589 3.23058C14.9867 2.76755 17.3995 3.00519 19.5922 3.91344C21.7849 4.8217 23.6591 6.35977 24.9776 8.33315C26.2962 10.3065 27 12.6266 27 15C27 18.1826 25.7357 21.2348 23.4853 23.4853C21.2348 25.7357 18.1826 27 15 27V27ZM16.5 14.895V7.5C16.5 7.10217 16.342 6.72064 16.0607 6.43934C15.7794 6.15803 15.3978 6 15 6C14.6022 6 14.2206 6.15803 13.9393 6.43934C13.658 6.72064 13.5 7.10217 13.5 7.5V15C13.5 15 13.5 15.105 13.5 15.165C13.4631 15.4699 13.5207 15.7788 13.665 16.05L15.915 19.95C16.1139 20.2961 16.4422 20.549 16.8276 20.6531C17.2129 20.7572 17.6239 20.7039 17.97 20.505C18.3161 20.3061 18.569 19.9778 18.6731 19.5924C18.7772 19.2071 18.7239 18.7961 18.525 18.45L16.5 14.895Z" fill="#164343"/>
</svg>
