<svg width="16" height="16" viewBox="0 0 16 16" fill="none" xmlns="http://www.w3.org/2000/svg">
<path d="M1.64528 3.13833L3.64216 1.14332C3.88592 0.899571 4.21217 0.762695 4.55717 0.762695C4.90217 0.762695 5.22842 0.897696 5.47217 1.14332L7.62281 3.29021C7.86656 3.53396 8.00343 3.86208 8.00343 4.20709C8.00343 4.55396 7.86843 4.87834 7.62281 5.12396L5.9428 6.80585C6.32552 7.69757 6.87542 8.50778 7.56281 9.19273C8.25093 9.88461 9.05531 10.4302 9.94782 10.8165L11.6278 9.13461C11.8716 8.89086 12.1978 8.75398 12.5428 8.75398C12.713 8.75335 12.8816 8.78669 13.0387 8.85205C13.1958 8.91741 13.3383 9.01347 13.4578 9.13461L15.6103 11.2815C15.8541 11.5252 15.991 11.8534 15.991 12.1984C15.991 12.5452 15.856 12.8696 15.6103 13.1152L13.6153 15.1103C13.1991 15.5265 12.6253 15.7646 12.0366 15.7646C11.9147 15.7646 11.7966 15.7553 11.6766 15.7346C9.19406 15.3259 6.7303 14.004 4.74092 12.0165C2.75341 10.0252 1.4334 7.56147 1.0209 5.07709C0.902776 4.37209 1.13903 3.64646 1.64528 3.13833ZM2.35028 4.85396C2.71591 7.0646 3.90467 9.26961 5.6953 11.0602C7.48593 12.8509 9.68906 14.0396 11.8997 14.4053C12.1772 14.4521 12.4622 14.3584 12.6647 14.1578L14.6241 12.1984L12.5466 10.119L10.3003 12.369L10.2834 12.3859L9.87844 12.2359C8.65045 11.7844 7.53531 11.0713 6.61032 10.1459C5.68533 9.22063 4.9726 8.10525 4.52154 6.8771L4.37154 6.4721L6.63655 4.20896L4.55904 2.12958L2.59966 4.08896C2.39716 4.29146 2.30341 4.57646 2.35028 4.85396Z" fill="#101010"/>
</svg>
