<svg width="18" height="13" viewBox="0 0 18 13" fill="none" xmlns="http://www.w3.org/2000/svg">
<path d="M16.74 0.193359H2.17201C1.85003 0.193359 1.54125 0.321263 1.31358 0.548932C1.08591 0.776601 0.958008 1.08539 0.958008 1.40736V11.1194C0.958008 11.4413 1.08591 11.7501 1.31358 11.9778C1.54125 12.2055 1.85003 12.3334 2.17201 12.3334H16.74C17.062 12.3334 17.3708 12.2055 17.5984 11.9778C17.8261 11.7501 17.954 11.4413 17.954 11.1194V1.40736C17.954 1.08539 17.8261 0.776601 17.5984 0.548932C17.3708 0.321263 17.062 0.193359 16.74 0.193359V0.193359ZM15.4046 1.40736L9.45601 5.52282L3.50741 1.40736H15.4046ZM2.17201 11.1194V1.95973L9.11002 6.7611C9.21163 6.83159 9.33234 6.86936 9.45601 6.86936C9.57967 6.86936 9.70039 6.83159 9.802 6.7611L16.74 1.95973V11.1194H2.17201Z" fill="#606060"/>
</svg>
