<svg width="43" height="43" viewBox="0 0 43 43" fill="none" xmlns="http://www.w3.org/2000/svg">
<path d="M34.5788 24.5739C36.3375 20.1513 36.2484 15.1836 34.3034 10.866L28.4318 10.75C28.3346 10.7481 28.2545 10.826 28.2539 10.9233L28.2044 18.1261C28.2041 18.1727 28.2225 18.2176 28.2555 18.2506L34.5788 24.5739ZM34.5788 24.5739C33.707 26.766 32.3814 28.8241 30.6027 30.6027C28.8241 32.3814 26.766 33.707 24.5739 34.5788M24.5739 34.5788C20.1513 36.3375 15.1836 36.2484 10.866 34.3034L10.75 28.4318C10.7481 28.3346 10.826 28.2545 10.9233 28.2539L18.1261 28.2044C18.1727 28.2041 18.2176 28.2225 18.2506 28.2555L24.5739 34.5788Z" stroke="#f3c21c" stroke-width="3"/>
<path d="M14.3334 23.2915C14.3334 18.344 18.3442 14.3332 23.2917 14.3332" stroke="#f3c21c" stroke-width="3"/>
<path d="M7.16675 23.2915C7.16675 14.3859 14.3862 7.16651 23.2917 7.16651" stroke="#f3c21c" stroke-width="3"/>
</svg>
