<svg width="18" height="13" viewBox="0 0 18 13" fill="none" xmlns="http://www.w3.org/2000/svg">
<path d="M16.7429 0.193359H2.17494C1.85296 0.193359 1.54418 0.321263 1.31651 0.548932C1.08884 0.776601 0.960938 1.08539 0.960938 1.40736V11.1194C0.960938 11.4413 1.08884 11.7501 1.31651 11.9778C1.54418 12.2055 1.85296 12.3334 2.17494 12.3334H16.7429C17.0649 12.3334 17.3737 12.2055 17.6014 11.9778C17.829 11.7501 17.9569 11.4413 17.9569 11.1194V1.40736C17.9569 1.08539 17.829 0.776601 17.6014 0.548932C17.3737 0.321263 17.0649 0.193359 16.7429 0.193359V0.193359ZM15.4075 1.40736L9.45894 5.52282L3.51034 1.40736H15.4075ZM2.17494 11.1194V1.95973L9.11295 6.7611C9.21456 6.83159 9.33527 6.86936 9.45894 6.86936C9.5826 6.86936 9.70332 6.83159 9.80493 6.7611L16.7429 1.95973V11.1194H2.17494Z" fill="#101010"/>
</svg>
