<svg width="15" height="16" viewBox="0 0 15 16" fill="none" xmlns="http://www.w3.org/2000/svg">
<path d="M7.98779 0.597656C5.84346 0.597656 4.0989 2.34221 4.0989 4.48655C4.0989 6.63088 5.84346 8.37543 7.98779 8.37543C10.1321 8.37543 11.8767 6.63088 11.8767 4.48655C11.8767 2.34221 10.1321 0.597656 7.98779 0.597656ZM7.98779 6.81988C6.70135 6.81988 5.65446 5.77299 5.65446 4.48655C5.65446 3.2001 6.70135 2.15321 7.98779 2.15321C9.27424 2.15321 10.3211 3.2001 10.3211 4.48655C10.3211 5.77299 9.27424 6.81988 7.98779 6.81988ZM14.9878 15.3754V14.5977C14.9878 11.5962 12.5448 9.15321 9.54335 9.15321H6.43224C3.43002 9.15321 0.987793 11.5962 0.987793 14.5977V15.3754H2.54335V14.5977C2.54335 12.4533 4.2879 10.7088 6.43224 10.7088H9.54335C11.6877 10.7088 13.4322 12.4533 13.4322 14.5977V15.3754H14.9878Z" fill="#606060"/>
</svg>
