<svg width="15" height="16" viewBox="0 0 15 16" fill="none" xmlns="http://www.w3.org/2000/svg">
<path d="M0.654314 2.37564L2.6512 0.380627C2.89495 0.136876 3.2212 0 3.5662 0C3.9112 0 4.23745 0.135001 4.4812 0.380627L6.63184 2.52751C6.87559 2.77126 7.01247 3.09939 7.01247 3.44439C7.01247 3.79127 6.87747 4.11564 6.63184 4.36127L4.95183 6.04315C5.33455 6.93488 5.88445 7.74509 6.57184 8.43004C7.25997 9.12191 8.06435 9.66754 8.95685 10.0538L10.6369 8.37191C10.8806 8.12816 11.2069 7.99128 11.5519 7.99128C11.722 7.99066 11.8906 8.024 12.0477 8.08936C12.2049 8.15471 12.3473 8.25078 12.4669 8.37191L14.6194 10.5188C14.8631 10.7625 15 11.0907 15 11.4357C15 11.7826 14.865 12.1069 14.6194 12.3526L12.6244 14.3476C12.2081 14.7638 11.6344 15.0019 11.0456 15.0019C10.9237 15.0019 10.8056 14.9926 10.6856 14.9719C8.2031 14.5632 5.73934 13.2413 3.74995 11.2538C1.76244 9.26254 0.442436 6.79878 0.0299349 4.31439C-0.088191 3.60939 0.148062 2.88376 0.654314 2.37564ZM1.35932 4.09127C1.72494 6.3019 2.9137 8.50691 4.70433 10.2975C6.49496 12.0882 8.6981 13.2769 10.9087 13.6426C11.1862 13.6894 11.4712 13.5957 11.6737 13.3951L13.6331 11.4357L11.5556 9.35629L9.30935 11.6063L9.29248 11.6232L8.88747 11.4732C7.65948 11.0217 6.54434 10.3086 5.61935 9.38325C4.69436 8.45794 3.98164 7.34255 3.53058 6.1144L3.38057 5.7094L5.64558 3.44626L3.56808 1.36688L1.60869 3.32626C1.40619 3.52876 1.31244 3.81377 1.35932 4.09127Z" fill="#606060"/>
</svg>
