<svg width="38" height="38" viewBox="0 0 38 38" fill="none" xmlns="http://www.w3.org/2000/svg">
<path d="M32.25 6.3335H5.75C5.19771 6.3335 4.75 6.78121 4.75 7.3335V25.3335V31.4588C4.75 31.5426 4.84699 31.5892 4.91247 31.5368L10.6875 26.9168H32.25C32.8023 26.9168 33.25 26.4691 33.25 25.9168V7.3335C33.25 6.78121 32.8023 6.3335 32.25 6.3335Z" stroke="#f3c21c" stroke-width="3"/>
<mask id="mask0_2287_1636" style="mask-type:alpha" maskUnits="userSpaceOnUse" x="1" y="1" width="18" height="36">
<rect width="17.4167" height="34.8333" transform="matrix(-1 0 0 1 19 1.5835)" fill="black"/>
</mask>
<g mask="url(#mask0_2287_1636)">
<path d="M32.25 6.3335H5.75C5.19771 6.3335 4.75 6.78121 4.75 7.3335V25.3335V31.4588C4.75 31.5426 4.84699 31.5892 4.91247 31.5368L10.6875 26.9168H32.25C32.8023 26.9168 33.25 26.4691 33.25 25.9168V7.3335C33.25 6.78121 32.8023 6.3335 32.25 6.3335Z" stroke="#f3c21c" stroke-width="3"/>
</g>
</svg>
