<svg width="14" height="16" viewBox="0 0 14 16" fill="none" xmlns="http://www.w3.org/2000/svg">
<path d="M7 0.666504C4.85567 0.666504 3.11111 2.41106 3.11111 4.55539C3.11111 6.69973 4.85567 8.44428 7 8.44428C9.14433 8.44428 10.8889 6.69973 10.8889 4.55539C10.8889 2.41106 9.14433 0.666504 7 0.666504ZM7 6.88873C5.71356 6.88873 4.66667 5.84184 4.66667 4.55539C4.66667 3.26895 5.71356 2.22206 7 2.22206C8.28644 2.22206 9.33333 3.26895 9.33333 4.55539C9.33333 5.84184 8.28644 6.88873 7 6.88873ZM14 15.4443V14.6665C14 11.6651 11.557 9.22206 8.55556 9.22206H5.44444C2.44222 9.22206 0 11.6651 0 14.6665V15.4443H1.55556V14.6665C1.55556 12.5222 3.30011 10.7776 5.44444 10.7776H8.55556C10.6999 10.7776 12.4444 12.5222 12.4444 14.6665V15.4443H14Z" fill="#101010"/>
</svg>
