<svg width="84" height="34" viewBox="0 0 84 34" fill="none" xmlns="http://www.w3.org/2000/svg">
<path d="M9.36 26.39C8.2 26.39 7.085 26.21 6.015 25.85C4.955 25.48 4.025 24.955 3.225 24.275C2.425 23.585 1.85 22.76 1.5 21.8L4.935 20.54C5.075 20.94 5.36 21.305 5.79 21.635C6.22 21.965 6.745 22.23 7.365 22.43C7.985 22.63 8.65 22.73 9.36 22.73C10.09 22.73 10.77 22.62 11.4 22.4C12.04 22.17 12.555 21.855 12.945 21.455C13.335 21.045 13.53 20.57 13.53 20.03C13.53 19.48 13.325 19.03 12.915 18.68C12.505 18.32 11.98 18.035 11.34 17.825C10.7 17.615 10.04 17.455 9.36 17.345C7.87 17.115 6.535 16.76 5.355 16.28C4.175 15.8 3.24 15.135 2.55 14.285C1.87 13.435 1.53 12.335 1.53 10.985C1.53 9.715 1.895 8.605 2.625 7.655C3.355 6.705 4.315 5.965 5.505 5.435C6.695 4.905 7.98 4.64 9.36 4.64C10.51 4.64 11.62 4.82 12.69 5.18C13.76 5.54 14.695 6.065 15.495 6.755C16.305 7.445 16.885 8.275 17.235 9.245L13.785 10.49C13.645 10.09 13.36 9.725 12.93 9.395C12.5 9.065 11.975 8.805 11.355 8.615C10.735 8.415 10.07 8.315 9.36 8.315C8.65 8.305 7.975 8.42 7.335 8.66C6.705 8.89 6.19 9.205 5.79 9.605C5.39 10.005 5.19 10.465 5.19 10.985C5.19 11.655 5.375 12.16 5.745 12.5C6.125 12.84 6.63 13.09 7.26 13.25C7.89 13.4 8.59 13.54 9.36 13.67C10.76 13.89 12.055 14.26 13.245 14.78C14.435 15.3 15.39 15.995 16.11 16.865C16.83 17.725 17.19 18.78 17.19 20.03C17.19 21.3 16.83 22.415 16.11 23.375C15.39 24.325 14.435 25.065 13.245 25.595C12.055 26.125 10.76 26.39 9.36 26.39ZM26.652 26.39C25.272 26.39 24.012 26.035 22.872 25.325C21.742 24.615 20.837 23.66 20.157 22.46C19.487 21.26 19.152 19.935 19.152 18.485C19.152 17.395 19.347 16.375 19.737 15.425C20.127 14.465 20.662 13.625 21.342 12.905C22.032 12.175 22.832 11.605 23.742 11.195C24.652 10.785 25.622 10.58 26.652 10.58C27.822 10.58 28.892 10.83 29.862 11.33C30.842 11.82 31.672 12.495 32.352 13.355C33.032 14.215 33.527 15.195 33.837 16.295C34.147 17.395 34.217 18.545 34.047 19.745H23.082C23.222 20.305 23.452 20.81 23.772 21.26C24.092 21.7 24.497 22.055 24.987 22.325C25.477 22.585 26.032 22.72 26.652 22.73C27.292 22.74 27.872 22.59 28.392 22.28C28.922 21.96 29.362 21.53 29.712 20.99L33.447 21.86C32.837 23.19 31.927 24.28 30.717 25.13C29.507 25.97 28.152 26.39 26.652 26.39ZM22.962 17H30.342C30.232 16.4 29.997 15.86 29.637 15.38C29.287 14.89 28.852 14.5 28.332 14.21C27.812 13.92 27.252 13.775 26.652 13.775C26.052 13.775 25.497 13.92 24.987 14.21C24.477 14.49 24.042 14.875 23.682 15.365C23.332 15.845 23.092 16.39 22.962 17ZM43.1461 26.39C41.7661 26.39 40.5061 26.035 39.3661 25.325C38.2361 24.615 37.3311 23.665 36.6511 22.475C35.9811 21.275 35.6461 19.95 35.6461 18.5C35.6461 17.4 35.8411 16.375 36.2311 15.425C36.6211 14.465 37.1561 13.625 37.8361 12.905C38.5261 12.175 39.3261 11.605 40.2361 11.195C41.1461 10.785 42.1161 10.58 43.1461 10.58C44.5261 10.58 45.7811 10.935 46.9111 11.645C48.0511 12.355 48.9561 13.31 49.6261 14.51C50.3061 15.71 50.6461 17.04 50.6461 18.5C50.6461 19.59 50.4511 20.61 50.0611 21.56C49.6711 22.51 49.1311 23.35 48.4411 24.08C47.7611 24.8 46.9661 25.365 46.0561 25.775C45.1561 26.185 44.1861 26.39 43.1461 26.39ZM43.1461 22.73C43.8761 22.73 44.5311 22.535 45.1111 22.145C45.6911 21.755 46.1461 21.24 46.4761 20.6C46.8161 19.96 46.9861 19.26 46.9861 18.5C46.9861 17.72 46.8111 17.01 46.4611 16.37C46.1211 15.72 45.6561 15.205 45.0661 14.825C44.4861 14.435 43.8461 14.24 43.1461 14.24C42.4261 14.24 41.7761 14.435 41.1961 14.825C40.6161 15.215 40.1561 15.735 39.8161 16.385C39.4761 17.035 39.3061 17.74 39.3061 18.5C39.3061 19.29 39.4811 20.005 39.8311 20.645C40.1811 21.285 40.6461 21.795 41.2261 22.175C41.8161 22.545 42.4561 22.73 43.1461 22.73ZM57.5782 7.85V11H61.6732V14.66H57.5782V26H53.9182V14.66H52.2832V11H53.9182V7.85C53.9182 6.99 54.1282 6.205 54.5482 5.495C54.9782 4.775 55.5532 4.205 56.2732 3.785C56.9932 3.355 57.7882 3.14 58.6582 3.14C59.2882 3.14 59.9132 3.27 60.5332 3.53C61.1532 3.79 61.7032 4.19 62.1832 4.73L59.5432 7.31C59.4532 7.14 59.3232 7.015 59.1532 6.935C58.9932 6.845 58.8282 6.8 58.6582 6.8C58.3682 6.8 58.1132 6.905 57.8932 7.115C57.6832 7.315 57.5782 7.56 57.5782 7.85ZM74.1701 11H78.0551L69.8501 33.5H65.9651L68.6801 26L63.2801 11H67.2851L70.5101 20.99L74.1701 11Z" fill="#101010"/>
<circle cx="81.5" cy="27.5" r="2.5" fill="#101010"/>
</svg>
