<svg width="109" height="27" viewBox="0 0 109 27" fill="none" xmlns="http://www.w3.org/2000/svg">
<path d="M0.68 20V0.399999H3.592V17.088H12.034V20H0.68ZM20.0197 20.364C18.7317 20.364 17.5557 20.0327 16.4917 19.37C15.437 18.7073 14.5924 17.8207 13.9577 16.71C13.3324 15.59 13.0197 14.3533 13.0197 13C13.0197 11.9733 13.2017 11.0167 13.5657 10.13C13.9297 9.234 14.429 8.45 15.0637 7.778C15.7077 7.09667 16.4544 6.56467 17.3037 6.182C18.153 5.79933 19.0584 5.608 20.0197 5.608C21.3077 5.608 22.479 5.93933 23.5337 6.602C24.5977 7.26467 25.4424 8.156 26.0677 9.276C26.7024 10.396 27.0197 11.6373 27.0197 13C27.0197 14.0173 26.8377 14.9693 26.4737 15.856C26.1097 16.7427 25.6057 17.5267 24.9617 18.208C24.327 18.88 23.585 19.4073 22.7357 19.79C21.8957 20.1727 20.9904 20.364 20.0197 20.364ZM20.0197 17.452C20.7944 17.452 21.4897 17.2467 22.1057 16.836C22.7217 16.4253 23.207 15.884 23.5617 15.212C23.9257 14.5307 24.1077 13.7933 24.1077 13C24.1077 12.188 23.921 11.4413 23.5477 10.76C23.1837 10.0787 22.6937 9.53733 22.0777 9.136C21.4617 8.72533 20.7757 8.52 20.0197 8.52C19.2544 8.52 18.559 8.72533 17.9337 9.136C17.3177 9.54667 16.8277 10.0927 16.4637 10.774C16.109 11.4553 15.9317 12.1973 15.9317 13C15.9317 13.8307 16.1184 14.582 16.4917 15.254C16.865 15.926 17.3597 16.4627 17.9757 16.864C18.601 17.256 19.2824 17.452 20.0197 17.452ZM39.9082 6H42.8202V20.364C42.8202 21.3253 42.6149 22.212 42.2042 23.024C41.8029 23.836 41.2569 24.536 40.5662 25.124C39.8756 25.7213 39.0822 26.1833 38.1862 26.51C37.2996 26.8367 36.3709 27 35.4002 27C34.4202 27 33.4776 26.79 32.5722 26.37C31.6669 25.9593 30.8689 25.3993 30.1782 24.69C29.4969 23.9807 28.9882 23.178 28.6522 22.282L31.3262 21.078C31.5129 21.6567 31.8116 22.17 32.2222 22.618C32.6422 23.066 33.1276 23.4207 33.6782 23.682C34.2382 23.9433 34.8122 24.074 35.4002 24.074C35.9789 24.074 36.5342 23.9807 37.0662 23.794C37.6076 23.6167 38.0882 23.3647 38.5082 23.038C38.9376 22.7113 39.2782 22.3193 39.5302 21.862C39.7822 21.4047 39.9082 20.9053 39.9082 20.364V17.998C39.4509 18.7073 38.8629 19.2813 38.1442 19.72C37.4256 20.1493 36.5902 20.364 35.6382 20.364C34.6489 20.364 33.7156 20.1727 32.8382 19.79C31.9609 19.4073 31.1909 18.88 30.5282 18.208C29.8656 17.5267 29.3476 16.7427 28.9742 15.856C28.6009 14.9693 28.4142 14.0173 28.4142 13C28.4142 11.9827 28.6009 11.0307 28.9742 10.144C29.3476 9.248 29.8656 8.464 30.5282 7.792C31.1909 7.11067 31.9609 6.57867 32.8382 6.196C33.7156 5.81333 34.6489 5.622 35.6382 5.622C36.5902 5.622 37.4256 5.84133 38.1442 6.28C38.8629 6.70933 39.4509 7.28333 39.9082 8.002V6ZM35.6662 17.55C36.4782 17.55 37.1876 17.3447 37.7942 16.934C38.4009 16.514 38.8722 15.9587 39.2082 15.268C39.5442 14.5773 39.7122 13.8213 39.7122 13C39.7122 12.16 39.5396 11.3993 39.1942 10.718C38.8582 10.0273 38.3869 9.47667 37.7802 9.066C37.1736 8.646 36.4689 8.436 35.6662 8.436C34.8822 8.436 34.1636 8.64133 33.5102 9.052C32.8662 9.46267 32.3529 10.0133 31.9702 10.704C31.5876 11.3947 31.3962 12.16 31.3962 13C31.3962 13.84 31.5876 14.6053 31.9702 15.296C32.3622 15.9867 32.8802 16.5373 33.5242 16.948C34.1776 17.3493 34.8916 17.55 35.6662 17.55ZM52.0939 20.364C50.8059 20.364 49.6299 20.0327 48.5659 19.37C47.5112 18.7073 46.6666 17.8207 46.0319 16.71C45.4066 15.59 45.0939 14.3533 45.0939 13C45.0939 11.9733 45.2759 11.0167 45.6399 10.13C46.0039 9.234 46.5032 8.45 47.1379 7.778C47.7819 7.09667 48.5286 6.56467 49.3779 6.182C50.2272 5.79933 51.1326 5.608 52.0939 5.608C53.3819 5.608 54.5532 5.93933 55.6079 6.602C56.6719 7.26467 57.5166 8.156 58.1419 9.276C58.7766 10.396 59.0939 11.6373 59.0939 13C59.0939 14.0173 58.9119 14.9693 58.5479 15.856C58.1839 16.7427 57.6799 17.5267 57.0359 18.208C56.4012 18.88 55.6592 19.4073 54.8099 19.79C53.9699 20.1727 53.0646 20.364 52.0939 20.364ZM52.0939 17.452C52.8686 17.452 53.5639 17.2467 54.1799 16.836C54.7959 16.4253 55.2812 15.884 55.6359 15.212C55.9999 14.5307 56.1819 13.7933 56.1819 13C56.1819 12.188 55.9952 11.4413 55.6219 10.76C55.2579 10.0787 54.7679 9.53733 54.1519 9.136C53.5359 8.72533 52.8499 8.52 52.0939 8.52C51.3286 8.52 50.6332 8.72533 50.0079 9.136C49.3919 9.54667 48.9019 10.0927 48.5379 10.774C48.1832 11.4553 48.0059 12.1973 48.0059 13C48.0059 13.8307 48.1926 14.582 48.5659 15.254C48.9392 15.926 49.4339 16.4627 50.0499 16.864C50.6752 17.256 51.3566 17.452 52.0939 17.452ZM65.6105 20.266C64.8731 20.2193 64.1545 20.07 63.4545 19.818C62.7545 19.566 62.1385 19.2253 61.6065 18.796C61.0838 18.3573 60.6918 17.844 60.4305 17.256L62.9085 16.192C63.0298 16.444 63.2398 16.6913 63.5385 16.934C63.8465 17.1767 64.2058 17.3773 64.6165 17.536C65.0271 17.6853 65.4565 17.76 65.9045 17.76C66.3431 17.76 66.7491 17.6993 67.1225 17.578C67.5051 17.4473 67.8178 17.2513 68.0605 16.99C68.3031 16.7287 68.4245 16.416 68.4245 16.052C68.4245 15.6413 68.2845 15.324 68.0045 15.1C67.7338 14.8667 67.3931 14.6893 66.9825 14.568C66.5718 14.4467 66.1611 14.33 65.7505 14.218C64.8358 14.0127 63.9958 13.7327 63.2305 13.378C62.4745 13.014 61.8725 12.552 61.4245 11.992C60.9765 11.4227 60.7525 10.7273 60.7525 9.906C60.7525 9.01 60.9951 8.23533 61.4805 7.582C61.9658 6.91933 62.6005 6.41067 63.3845 6.056C64.1778 5.70133 65.0225 5.524 65.9185 5.524C67.0385 5.524 68.0651 5.762 68.9985 6.238C69.9318 6.714 70.6458 7.36733 71.1405 8.198L68.8305 9.57C68.6905 9.29 68.4805 9.038 68.2005 8.814C67.9205 8.59 67.6031 8.41267 67.2485 8.282C66.8938 8.142 66.5251 8.06267 66.1425 8.044C65.6665 8.02533 65.2231 8.08133 64.8125 8.212C64.4111 8.33333 64.0891 8.52933 63.8465 8.8C63.6038 9.07067 63.4825 9.416 63.4825 9.836C63.4825 10.2467 63.6271 10.5547 63.9165 10.76C64.2058 10.956 64.5698 11.1147 65.0085 11.236C65.4565 11.3573 65.9138 11.4927 66.3805 11.642C67.2111 11.9033 67.9905 12.2253 68.7185 12.608C69.4465 12.9813 70.0345 13.4433 70.4825 13.994C70.9305 14.5447 71.1451 15.2167 71.1265 16.01C71.1265 16.8873 70.8605 17.6573 70.3285 18.32C69.8058 18.9827 69.1245 19.4867 68.2845 19.832C67.4445 20.1773 66.5531 20.322 65.6105 20.266ZM80.9158 8.912H77.9758L77.9618 20H75.0498L75.0638 8.912H72.8378V6H75.0638L75.0498 1.604H77.9618L77.9758 6H80.9158V8.912ZM93.9861 6H96.8981V20H93.9721L93.8601 17.97C93.4494 18.6887 92.8941 19.2673 92.1941 19.706C91.4941 20.1447 90.6681 20.364 89.7161 20.364C88.6894 20.364 87.7234 20.1727 86.8181 19.79C85.9127 19.398 85.1147 18.8567 84.4241 18.166C83.7427 17.4753 83.2107 16.682 82.8281 15.786C82.4454 14.8807 82.2541 13.91 82.2541 12.874C82.2541 11.8753 82.4407 10.9373 82.8141 10.06C83.1874 9.17333 83.7054 8.39867 84.3681 7.736C85.0307 7.07333 85.7961 6.55533 86.6641 6.182C87.5414 5.79933 88.4794 5.608 89.4781 5.608C90.4954 5.608 91.3914 5.84133 92.1661 6.308C92.9501 6.76533 93.5987 7.35333 94.1121 8.072L93.9861 6ZM89.6461 17.55C90.4674 17.55 91.1861 17.3493 91.8021 16.948C92.4181 16.5373 92.8941 15.9867 93.2301 15.296C93.5754 14.6053 93.7481 13.84 93.7481 13C93.7481 12.1507 93.5754 11.3807 93.2301 10.69C92.8847 9.99933 92.4041 9.45333 91.7881 9.052C91.1814 8.64133 90.4674 8.436 89.6461 8.436C88.8341 8.436 88.0921 8.64133 87.4201 9.052C86.7481 9.46267 86.2161 10.0133 85.8241 10.704C85.4321 11.3947 85.2361 12.16 85.2361 13C85.2361 13.8493 85.4367 14.6193 85.8381 15.31C86.2487 15.9913 86.7854 16.5373 87.4481 16.948C88.1201 17.3493 88.8527 17.55 89.6461 17.55ZM99.6917 20V6H102.604V7.484C103.089 6.90533 103.686 6.448 104.396 6.112C105.105 5.776 105.87 5.608 106.692 5.608C107.214 5.608 107.732 5.678 108.246 5.818L107.084 8.758C106.72 8.618 106.356 8.548 105.992 8.548C105.376 8.548 104.811 8.702 104.298 9.01C103.784 9.30867 103.374 9.71467 103.066 10.228C102.758 10.7413 102.604 11.3107 102.604 11.936V20H99.6917Z" fill="white"/>
</svg>
